M48
; DRILL file {KiCad (5.1.5)-3} date 17/04/2021 1:47:42
; FORMAT={-:-/ absolute / metric / decimal}
; #@! TF.CreationDate,2021-04-17T01:47:42+01:00
; #@! TF.GenerationSoftware,Kicad,Pcbnew,(5.1.5)-3
FMAT,2
METRIC
T1C0.400
T2C0.500
T3C0.800
T4C0.900
T5C1.000
T6C1.100
T7C1.500
T8C3.200
%
G90
G05
T1
X85.725Y-67.945
X94.742Y-87.122
X96.266Y-93.472
X100.838Y-96.774
X105.029Y-69.088
X110.363Y-74.422
X110.363Y-69.088
X111.379Y-79.248
X112.903Y-70.358
X122.301Y-135.382
X123.952Y-140.716
X125.095Y-102.362
X125.222Y-86.36
X126.746Y-95.25
X126.873Y-103.378
X128.397Y-84.963
X128.397Y-101.346
X128.905Y-81.915
X129.032Y-87.884
X129.794Y-110.744
X130.048Y-98.552
X130.656Y-102.689
X130.81Y-93.507
X131.064Y-132.842
X131.198Y-117.894
X131.572Y-112.776
X132.842Y-85.852
X133.223Y-91.948
X133.731Y-96.393
X134.366Y-126.238
X134.874Y-112.592
X135.625Y-95.745
X137.931Y-81.153
X138.296Y-97.148
X138.371Y-103.759
X140.462Y-97.79
X141.859Y-63.627
X143.891Y-80.264
X145.669Y-96.647
X146.812Y-82.55
X147.701Y-108.458
X149.987Y-95.758
X152.019Y-123.952
X152.781Y-126.746
X153.416Y-93.091
X156.591Y-97.917
X157.607Y-64.516
X158.369Y-87.503
X158.877Y-112.649
X161.925Y-74.168
X162.433Y-98.044
X162.687Y-85.09
X163.449Y-73.533
X163.449Y-100.838
X164.338Y-88.9
X164.477Y-68.58
X164.719Y-99.568
X164.719Y-119.888
X165.227Y-125.222
X167.132Y-104.394
X167.259Y-128.524
X167.513Y-80.01
X168.021Y-119.888
X168.402Y-89.027
X168.529Y-112.776
X169.037Y-75.184
X169.037Y-127.762
X170.307Y-105.664
X171.831Y-112.395
X174.625Y-86.233
X175.895Y-80.01
X176.657Y-91.567
X177.038Y-113.411
X177.8Y-74.803
X180.213Y-112.395
X181.229Y-92.456
X185.293Y-99.196
X187.843Y-91.89
X187.96Y-95.631
X188.95Y-108.86
X189.738Y-113.538
X189.992Y-105.791
X190.245Y-96.384
X191.77Y-122.428
X192.278Y-87.249
X192.278Y-110.998
X192.405Y-76.454
X194.818Y-86.741
X195.961Y-111.76
X196.723Y-86.741
X196.977Y-116.332
X206.992Y-93.381
X208.3Y-104.902
X208.534Y-108.331
X208.915Y-99.314
X215.011Y-88.646
T2
X182.535Y-140.334
X199.009Y-133.35
X209.455Y-93.404
T3
X86.487Y-64.008
X143.891Y-70.866
X149.479Y-72.644
X191.389Y-109.22
X191.389Y-116.586
X205.613Y-83.82
X210.185Y-65.532
X218.059Y-91.44
X90.44Y-111.955
X98.06Y-111.955
X92.075Y-91.44
X92.075Y-99.06
X90.44Y-107.905
X98.06Y-107.905
T4
X106.045Y-100.33
X106.045Y-105.21
X133.858Y-103.705
X133.858Y-108.585
T5
X217.551Y-76.327
X217.551Y-78.867
X83.185Y-74.422
X83.185Y-76.962
X85.725Y-74.422
X85.725Y-76.962
X82.55Y-90.805
X82.55Y-93.345
T6
X86.36Y-138.684
X88.86Y-138.684
X91.36Y-138.684
X93.86Y-138.684
X96.36Y-138.684
X98.86Y-138.684
X101.36Y-138.684
X103.86Y-138.684
X106.36Y-138.684
X108.86Y-138.684
X111.36Y-138.684
X113.86Y-138.684
X116.36Y-138.684
X118.86Y-138.684
X86.36Y-129.032
X88.86Y-129.032
X91.36Y-129.032
X93.86Y-129.032
X96.36Y-129.032
X98.86Y-129.032
X101.36Y-129.032
X103.86Y-129.032
X106.36Y-129.032
X108.86Y-129.032
X111.36Y-129.032
X113.86Y-129.032
X116.36Y-129.032
X118.86Y-129.032
X198.12Y-131.064
X198.12Y-139.814
X213.02Y-131.064
X213.02Y-139.814
X99.06Y-76.835
X101.6Y-76.835
X104.14Y-76.835
X106.68Y-76.835
X127.762Y-138.684
X130.262Y-138.684
X132.762Y-138.684
X135.262Y-138.684
X137.762Y-138.684
X140.262Y-138.684
X142.762Y-138.684
X145.262Y-138.684
X147.762Y-138.684
X150.262Y-138.684
X152.762Y-138.684
X155.262Y-138.684
X157.762Y-138.684
X160.262Y-138.684
X217.17Y-120.015
X217.17Y-122.555
X217.17Y-125.095
X217.17Y-127.635
X217.17Y-130.175
X123.825Y-74.295
X123.825Y-76.835
X123.825Y-79.375
X126.365Y-74.295
X126.365Y-76.835
X126.365Y-79.375
X99.06Y-65.405
X101.6Y-65.405
X104.14Y-65.405
X106.68Y-65.405
X128.27Y-65.405
X130.81Y-65.405
X133.35Y-65.405
X135.89Y-65.405
X138.43Y-65.405
X113.665Y-74.295
X113.665Y-76.835
X113.665Y-79.375
X116.205Y-74.295
X116.205Y-76.835
X116.205Y-79.375
X82.55Y-103.505
X82.55Y-106.045
X82.55Y-108.585
X82.55Y-111.125
X86.36Y-118.745
X88.86Y-118.745
X91.36Y-118.745
X93.86Y-118.745
X96.36Y-118.745
X98.86Y-118.745
X101.36Y-118.745
X103.86Y-118.745
X106.36Y-118.745
X108.86Y-118.745
X111.36Y-118.745
X113.86Y-118.745
X116.36Y-118.745
X118.86Y-118.745
X113.03Y-65.405
X115.57Y-65.405
X118.11Y-65.405
X120.65Y-65.405
X123.19Y-65.405
T7
X171.45Y-139.954
X194.05Y-139.954
X171.45Y-129.794
X194.05Y-129.794
T8
X219.71Y-63.881
X78.105Y-139.954
X78.105Y-63.881
X219.71Y-139.954
T0
M30
