G04 #@! TF.GenerationSoftware,KiCad,Pcbnew,(5.1.5)-3*
G04 #@! TF.CreationDate,2021-04-17T01:47:35+01:00*
G04 #@! TF.ProjectId,Nodo_BMS_1_1,4e6f646f-5f42-44d5-935f-315f312e6b69,rev?*
G04 #@! TF.SameCoordinates,Original*
G04 #@! TF.FileFunction,Soldermask,Bot*
G04 #@! TF.FilePolarity,Negative*
%FSLAX46Y46*%
G04 Gerber Fmt 4.6, Leading zero omitted, Abs format (unit mm)*
G04 Created by KiCad (PCBNEW (5.1.5)-3) date 2021-04-17 01:47:35*
%MOMM*%
%LPD*%
G04 APERTURE LIST*
%ADD10C,0.150000*%
G04 APERTURE END LIST*
D10*
G36*
X220085256Y-138345298D02*
G01*
X220191579Y-138366447D01*
X220492042Y-138490903D01*
X220762451Y-138671585D01*
X220992415Y-138901549D01*
X221173097Y-139171958D01*
X221173098Y-139171960D01*
X221192718Y-139219328D01*
X221287929Y-139449186D01*
X221297553Y-139472422D01*
X221361000Y-139791389D01*
X221361000Y-140116611D01*
X221360213Y-140120565D01*
X221297553Y-140435579D01*
X221216870Y-140630365D01*
X221192718Y-140688674D01*
X221173097Y-140736042D01*
X220992415Y-141006451D01*
X220762451Y-141236415D01*
X220492042Y-141417097D01*
X220191579Y-141541553D01*
X220085256Y-141562702D01*
X219872611Y-141605000D01*
X219547389Y-141605000D01*
X219334744Y-141562702D01*
X219228421Y-141541553D01*
X218927958Y-141417097D01*
X218657549Y-141236415D01*
X218427585Y-141006451D01*
X218246903Y-140736042D01*
X218227283Y-140688674D01*
X218203130Y-140630365D01*
X218122447Y-140435579D01*
X218059787Y-140120565D01*
X218059000Y-140116611D01*
X218059000Y-139791389D01*
X218122447Y-139472422D01*
X218132072Y-139449186D01*
X218227282Y-139219328D01*
X218246902Y-139171960D01*
X218246903Y-139171958D01*
X218427585Y-138901549D01*
X218657549Y-138671585D01*
X218927958Y-138490903D01*
X219228421Y-138366447D01*
X219334744Y-138345298D01*
X219547389Y-138303000D01*
X219872611Y-138303000D01*
X220085256Y-138345298D01*
G37*
G36*
X78480256Y-138345298D02*
G01*
X78586579Y-138366447D01*
X78887042Y-138490903D01*
X79157451Y-138671585D01*
X79387415Y-138901549D01*
X79568097Y-139171958D01*
X79568098Y-139171960D01*
X79587718Y-139219328D01*
X79682929Y-139449186D01*
X79692553Y-139472422D01*
X79756000Y-139791389D01*
X79756000Y-140116611D01*
X79755213Y-140120565D01*
X79692553Y-140435579D01*
X79611870Y-140630365D01*
X79587718Y-140688674D01*
X79568097Y-140736042D01*
X79387415Y-141006451D01*
X79157451Y-141236415D01*
X78887042Y-141417097D01*
X78586579Y-141541553D01*
X78480256Y-141562702D01*
X78267611Y-141605000D01*
X77942389Y-141605000D01*
X77729744Y-141562702D01*
X77623421Y-141541553D01*
X77322958Y-141417097D01*
X77052549Y-141236415D01*
X76822585Y-141006451D01*
X76641903Y-140736042D01*
X76622283Y-140688674D01*
X76598130Y-140630365D01*
X76517447Y-140435579D01*
X76454787Y-140120565D01*
X76454000Y-140116611D01*
X76454000Y-139791389D01*
X76517447Y-139472422D01*
X76527072Y-139449186D01*
X76622282Y-139219328D01*
X76641902Y-139171960D01*
X76641903Y-139171958D01*
X76822585Y-138901549D01*
X77052549Y-138671585D01*
X77322958Y-138490903D01*
X77623421Y-138366447D01*
X77729744Y-138345298D01*
X77942389Y-138303000D01*
X78267611Y-138303000D01*
X78480256Y-138345298D01*
G37*
G36*
X171752585Y-138432802D02*
G01*
X171902410Y-138462604D01*
X172184674Y-138579521D01*
X172438705Y-138749259D01*
X172654741Y-138965295D01*
X172824479Y-139219326D01*
X172941396Y-139501590D01*
X172953368Y-139561778D01*
X172980066Y-139695995D01*
X173001000Y-139801240D01*
X173001000Y-140106760D01*
X172941396Y-140406410D01*
X172824479Y-140688674D01*
X172654741Y-140942705D01*
X172438705Y-141158741D01*
X172184674Y-141328479D01*
X171902410Y-141445396D01*
X171752585Y-141475198D01*
X171602761Y-141505000D01*
X171297239Y-141505000D01*
X171147415Y-141475198D01*
X170997590Y-141445396D01*
X170715326Y-141328479D01*
X170461295Y-141158741D01*
X170245259Y-140942705D01*
X170075521Y-140688674D01*
X169958604Y-140406410D01*
X169899000Y-140106760D01*
X169899000Y-139801240D01*
X169919935Y-139695995D01*
X169946632Y-139561778D01*
X169958604Y-139501590D01*
X170075521Y-139219326D01*
X170245259Y-138965295D01*
X170461295Y-138749259D01*
X170715326Y-138579521D01*
X170997590Y-138462604D01*
X171147415Y-138432802D01*
X171297239Y-138403000D01*
X171602761Y-138403000D01*
X171752585Y-138432802D01*
G37*
G36*
X194352585Y-138432802D02*
G01*
X194502410Y-138462604D01*
X194784674Y-138579521D01*
X195038705Y-138749259D01*
X195254741Y-138965295D01*
X195424479Y-139219326D01*
X195541396Y-139501590D01*
X195553368Y-139561778D01*
X195580066Y-139695995D01*
X195601000Y-139801240D01*
X195601000Y-140106760D01*
X195541396Y-140406410D01*
X195424479Y-140688674D01*
X195254741Y-140942705D01*
X195038705Y-141158741D01*
X194784674Y-141328479D01*
X194502410Y-141445396D01*
X194352585Y-141475198D01*
X194202761Y-141505000D01*
X193897239Y-141505000D01*
X193747415Y-141475198D01*
X193597590Y-141445396D01*
X193315326Y-141328479D01*
X193061295Y-141158741D01*
X192845259Y-140942705D01*
X192675521Y-140688674D01*
X192558604Y-140406410D01*
X192499000Y-140106760D01*
X192499000Y-139801240D01*
X192519935Y-139695995D01*
X192546632Y-139561778D01*
X192558604Y-139501590D01*
X192675521Y-139219326D01*
X192845259Y-138965295D01*
X193061295Y-138749259D01*
X193315326Y-138579521D01*
X193597590Y-138462604D01*
X193747415Y-138432802D01*
X193897239Y-138403000D01*
X194202761Y-138403000D01*
X194352585Y-138432802D01*
G37*
G36*
X198426564Y-138803389D02*
G01*
X198617833Y-138882615D01*
X198617835Y-138882616D01*
X198789973Y-138997635D01*
X198936365Y-139144027D01*
X199048594Y-139311989D01*
X199051385Y-139316167D01*
X199130611Y-139507436D01*
X199171000Y-139710484D01*
X199171000Y-139917516D01*
X199130611Y-140120564D01*
X199051385Y-140311833D01*
X199051384Y-140311835D01*
X198936365Y-140483973D01*
X198789973Y-140630365D01*
X198617835Y-140745384D01*
X198617834Y-140745385D01*
X198617833Y-140745385D01*
X198426564Y-140824611D01*
X198223516Y-140865000D01*
X198016484Y-140865000D01*
X197813436Y-140824611D01*
X197622167Y-140745385D01*
X197622166Y-140745385D01*
X197622165Y-140745384D01*
X197450027Y-140630365D01*
X197303635Y-140483973D01*
X197188616Y-140311835D01*
X197188615Y-140311833D01*
X197109389Y-140120564D01*
X197069000Y-139917516D01*
X197069000Y-139710484D01*
X197109389Y-139507436D01*
X197188615Y-139316167D01*
X197191407Y-139311989D01*
X197303635Y-139144027D01*
X197450027Y-138997635D01*
X197622165Y-138882616D01*
X197622167Y-138882615D01*
X197813436Y-138803389D01*
X198016484Y-138763000D01*
X198223516Y-138763000D01*
X198426564Y-138803389D01*
G37*
G36*
X213326564Y-138803389D02*
G01*
X213517833Y-138882615D01*
X213517835Y-138882616D01*
X213689973Y-138997635D01*
X213836365Y-139144027D01*
X213948594Y-139311989D01*
X213951385Y-139316167D01*
X214030611Y-139507436D01*
X214071000Y-139710484D01*
X214071000Y-139917516D01*
X214030611Y-140120564D01*
X213951385Y-140311833D01*
X213951384Y-140311835D01*
X213836365Y-140483973D01*
X213689973Y-140630365D01*
X213517835Y-140745384D01*
X213517834Y-140745385D01*
X213517833Y-140745385D01*
X213326564Y-140824611D01*
X213123516Y-140865000D01*
X212916484Y-140865000D01*
X212713436Y-140824611D01*
X212522167Y-140745385D01*
X212522166Y-140745385D01*
X212522165Y-140745384D01*
X212350027Y-140630365D01*
X212203635Y-140483973D01*
X212088616Y-140311835D01*
X212088615Y-140311833D01*
X212009389Y-140120564D01*
X211969000Y-139917516D01*
X211969000Y-139710484D01*
X212009389Y-139507436D01*
X212088615Y-139316167D01*
X212091407Y-139311989D01*
X212203635Y-139144027D01*
X212350027Y-138997635D01*
X212522165Y-138882616D01*
X212522167Y-138882615D01*
X212713436Y-138803389D01*
X212916484Y-138763000D01*
X213123516Y-138763000D01*
X213326564Y-138803389D01*
G37*
G36*
X91536626Y-137671037D02*
G01*
X91706465Y-137722557D01*
X91706467Y-137722558D01*
X91862989Y-137806221D01*
X92000186Y-137918814D01*
X92083448Y-138020271D01*
X92112778Y-138056009D01*
X92196443Y-138212534D01*
X92247963Y-138382373D01*
X92254482Y-138448558D01*
X92261000Y-138514740D01*
X92261000Y-138853259D01*
X92256244Y-138901549D01*
X92247963Y-138985626D01*
X92196443Y-139155466D01*
X92112778Y-139311991D01*
X92083448Y-139347729D01*
X92000186Y-139449186D01*
X91905105Y-139527216D01*
X91862991Y-139561778D01*
X91706466Y-139645443D01*
X91536627Y-139696963D01*
X91360000Y-139714359D01*
X91183374Y-139696963D01*
X91013535Y-139645443D01*
X90857010Y-139561778D01*
X90719815Y-139449185D01*
X90607222Y-139311991D01*
X90523557Y-139155466D01*
X90472037Y-138985627D01*
X90459000Y-138853258D01*
X90459000Y-138514743D01*
X90472037Y-138382374D01*
X90523557Y-138212535D01*
X90607222Y-138056010D01*
X90607223Y-138056009D01*
X90719814Y-137918814D01*
X90838365Y-137821523D01*
X90857009Y-137806222D01*
X91013534Y-137722557D01*
X91183373Y-137671037D01*
X91360000Y-137653641D01*
X91536626Y-137671037D01*
G37*
G36*
X160438626Y-137671037D02*
G01*
X160608465Y-137722557D01*
X160608467Y-137722558D01*
X160764989Y-137806221D01*
X160902186Y-137918814D01*
X160985448Y-138020271D01*
X161014778Y-138056009D01*
X161098443Y-138212534D01*
X161149963Y-138382373D01*
X161156482Y-138448558D01*
X161163000Y-138514740D01*
X161163000Y-138853259D01*
X161158244Y-138901549D01*
X161149963Y-138985626D01*
X161098443Y-139155466D01*
X161014778Y-139311991D01*
X160985448Y-139347729D01*
X160902186Y-139449186D01*
X160807105Y-139527216D01*
X160764991Y-139561778D01*
X160608466Y-139645443D01*
X160438627Y-139696963D01*
X160262000Y-139714359D01*
X160085374Y-139696963D01*
X159915535Y-139645443D01*
X159759010Y-139561778D01*
X159621815Y-139449185D01*
X159509222Y-139311991D01*
X159425557Y-139155466D01*
X159374037Y-138985627D01*
X159361000Y-138853258D01*
X159361000Y-138514743D01*
X159374037Y-138382374D01*
X159425557Y-138212535D01*
X159509222Y-138056010D01*
X159509223Y-138056009D01*
X159621814Y-137918814D01*
X159740365Y-137821523D01*
X159759009Y-137806222D01*
X159915534Y-137722557D01*
X160085373Y-137671037D01*
X160262000Y-137653641D01*
X160438626Y-137671037D01*
G37*
G36*
X94036626Y-137671037D02*
G01*
X94206465Y-137722557D01*
X94206467Y-137722558D01*
X94362989Y-137806221D01*
X94500186Y-137918814D01*
X94583448Y-138020271D01*
X94612778Y-138056009D01*
X94696443Y-138212534D01*
X94747963Y-138382373D01*
X94754482Y-138448558D01*
X94761000Y-138514740D01*
X94761000Y-138853259D01*
X94756244Y-138901549D01*
X94747963Y-138985626D01*
X94696443Y-139155466D01*
X94612778Y-139311991D01*
X94583448Y-139347729D01*
X94500186Y-139449186D01*
X94405105Y-139527216D01*
X94362991Y-139561778D01*
X94206466Y-139645443D01*
X94036627Y-139696963D01*
X93860000Y-139714359D01*
X93683374Y-139696963D01*
X93513535Y-139645443D01*
X93357010Y-139561778D01*
X93219815Y-139449185D01*
X93107222Y-139311991D01*
X93023557Y-139155466D01*
X92972037Y-138985627D01*
X92959000Y-138853258D01*
X92959000Y-138514743D01*
X92972037Y-138382374D01*
X93023557Y-138212535D01*
X93107222Y-138056010D01*
X93107223Y-138056009D01*
X93219814Y-137918814D01*
X93338365Y-137821523D01*
X93357009Y-137806222D01*
X93513534Y-137722557D01*
X93683373Y-137671037D01*
X93860000Y-137653641D01*
X94036626Y-137671037D01*
G37*
G36*
X96536626Y-137671037D02*
G01*
X96706465Y-137722557D01*
X96706467Y-137722558D01*
X96862989Y-137806221D01*
X97000186Y-137918814D01*
X97083448Y-138020271D01*
X97112778Y-138056009D01*
X97196443Y-138212534D01*
X97247963Y-138382373D01*
X97254482Y-138448558D01*
X97261000Y-138514740D01*
X97261000Y-138853259D01*
X97256244Y-138901549D01*
X97247963Y-138985626D01*
X97196443Y-139155466D01*
X97112778Y-139311991D01*
X97083448Y-139347729D01*
X97000186Y-139449186D01*
X96905105Y-139527216D01*
X96862991Y-139561778D01*
X96706466Y-139645443D01*
X96536627Y-139696963D01*
X96360000Y-139714359D01*
X96183374Y-139696963D01*
X96013535Y-139645443D01*
X95857010Y-139561778D01*
X95719815Y-139449185D01*
X95607222Y-139311991D01*
X95523557Y-139155466D01*
X95472037Y-138985627D01*
X95459000Y-138853258D01*
X95459000Y-138514743D01*
X95472037Y-138382374D01*
X95523557Y-138212535D01*
X95607222Y-138056010D01*
X95607223Y-138056009D01*
X95719814Y-137918814D01*
X95838365Y-137821523D01*
X95857009Y-137806222D01*
X96013534Y-137722557D01*
X96183373Y-137671037D01*
X96360000Y-137653641D01*
X96536626Y-137671037D01*
G37*
G36*
X99036626Y-137671037D02*
G01*
X99206465Y-137722557D01*
X99206467Y-137722558D01*
X99362989Y-137806221D01*
X99500186Y-137918814D01*
X99583448Y-138020271D01*
X99612778Y-138056009D01*
X99696443Y-138212534D01*
X99747963Y-138382373D01*
X99754482Y-138448558D01*
X99761000Y-138514740D01*
X99761000Y-138853259D01*
X99756244Y-138901549D01*
X99747963Y-138985626D01*
X99696443Y-139155466D01*
X99612778Y-139311991D01*
X99583448Y-139347729D01*
X99500186Y-139449186D01*
X99405105Y-139527216D01*
X99362991Y-139561778D01*
X99206466Y-139645443D01*
X99036627Y-139696963D01*
X98860000Y-139714359D01*
X98683374Y-139696963D01*
X98513535Y-139645443D01*
X98357010Y-139561778D01*
X98219815Y-139449185D01*
X98107222Y-139311991D01*
X98023557Y-139155466D01*
X97972037Y-138985627D01*
X97959000Y-138853258D01*
X97959000Y-138514743D01*
X97972037Y-138382374D01*
X98023557Y-138212535D01*
X98107222Y-138056010D01*
X98107223Y-138056009D01*
X98219814Y-137918814D01*
X98338365Y-137821523D01*
X98357009Y-137806222D01*
X98513534Y-137722557D01*
X98683373Y-137671037D01*
X98860000Y-137653641D01*
X99036626Y-137671037D01*
G37*
G36*
X101536626Y-137671037D02*
G01*
X101706465Y-137722557D01*
X101706467Y-137722558D01*
X101862989Y-137806221D01*
X102000186Y-137918814D01*
X102083448Y-138020271D01*
X102112778Y-138056009D01*
X102196443Y-138212534D01*
X102247963Y-138382373D01*
X102254482Y-138448558D01*
X102261000Y-138514740D01*
X102261000Y-138853259D01*
X102256244Y-138901549D01*
X102247963Y-138985626D01*
X102196443Y-139155466D01*
X102112778Y-139311991D01*
X102083448Y-139347729D01*
X102000186Y-139449186D01*
X101905105Y-139527216D01*
X101862991Y-139561778D01*
X101706466Y-139645443D01*
X101536627Y-139696963D01*
X101360000Y-139714359D01*
X101183374Y-139696963D01*
X101013535Y-139645443D01*
X100857010Y-139561778D01*
X100719815Y-139449185D01*
X100607222Y-139311991D01*
X100523557Y-139155466D01*
X100472037Y-138985627D01*
X100459000Y-138853258D01*
X100459000Y-138514743D01*
X100472037Y-138382374D01*
X100523557Y-138212535D01*
X100607222Y-138056010D01*
X100607223Y-138056009D01*
X100719814Y-137918814D01*
X100838365Y-137821523D01*
X100857009Y-137806222D01*
X101013534Y-137722557D01*
X101183373Y-137671037D01*
X101360000Y-137653641D01*
X101536626Y-137671037D01*
G37*
G36*
X104036626Y-137671037D02*
G01*
X104206465Y-137722557D01*
X104206467Y-137722558D01*
X104362989Y-137806221D01*
X104500186Y-137918814D01*
X104583448Y-138020271D01*
X104612778Y-138056009D01*
X104696443Y-138212534D01*
X104747963Y-138382373D01*
X104754482Y-138448558D01*
X104761000Y-138514740D01*
X104761000Y-138853259D01*
X104756244Y-138901549D01*
X104747963Y-138985626D01*
X104696443Y-139155466D01*
X104612778Y-139311991D01*
X104583448Y-139347729D01*
X104500186Y-139449186D01*
X104405105Y-139527216D01*
X104362991Y-139561778D01*
X104206466Y-139645443D01*
X104036627Y-139696963D01*
X103860000Y-139714359D01*
X103683374Y-139696963D01*
X103513535Y-139645443D01*
X103357010Y-139561778D01*
X103219815Y-139449185D01*
X103107222Y-139311991D01*
X103023557Y-139155466D01*
X102972037Y-138985627D01*
X102959000Y-138853258D01*
X102959000Y-138514743D01*
X102972037Y-138382374D01*
X103023557Y-138212535D01*
X103107222Y-138056010D01*
X103107223Y-138056009D01*
X103219814Y-137918814D01*
X103338365Y-137821523D01*
X103357009Y-137806222D01*
X103513534Y-137722557D01*
X103683373Y-137671037D01*
X103860000Y-137653641D01*
X104036626Y-137671037D01*
G37*
G36*
X106536626Y-137671037D02*
G01*
X106706465Y-137722557D01*
X106706467Y-137722558D01*
X106862989Y-137806221D01*
X107000186Y-137918814D01*
X107083448Y-138020271D01*
X107112778Y-138056009D01*
X107196443Y-138212534D01*
X107247963Y-138382373D01*
X107254482Y-138448558D01*
X107261000Y-138514740D01*
X107261000Y-138853259D01*
X107256244Y-138901549D01*
X107247963Y-138985626D01*
X107196443Y-139155466D01*
X107112778Y-139311991D01*
X107083448Y-139347729D01*
X107000186Y-139449186D01*
X106905105Y-139527216D01*
X106862991Y-139561778D01*
X106706466Y-139645443D01*
X106536627Y-139696963D01*
X106360000Y-139714359D01*
X106183374Y-139696963D01*
X106013535Y-139645443D01*
X105857010Y-139561778D01*
X105719815Y-139449185D01*
X105607222Y-139311991D01*
X105523557Y-139155466D01*
X105472037Y-138985627D01*
X105459000Y-138853258D01*
X105459000Y-138514743D01*
X105472037Y-138382374D01*
X105523557Y-138212535D01*
X105607222Y-138056010D01*
X105607223Y-138056009D01*
X105719814Y-137918814D01*
X105838365Y-137821523D01*
X105857009Y-137806222D01*
X106013534Y-137722557D01*
X106183373Y-137671037D01*
X106360000Y-137653641D01*
X106536626Y-137671037D01*
G37*
G36*
X109036626Y-137671037D02*
G01*
X109206465Y-137722557D01*
X109206467Y-137722558D01*
X109362989Y-137806221D01*
X109500186Y-137918814D01*
X109583448Y-138020271D01*
X109612778Y-138056009D01*
X109696443Y-138212534D01*
X109747963Y-138382373D01*
X109754482Y-138448558D01*
X109761000Y-138514740D01*
X109761000Y-138853259D01*
X109756244Y-138901549D01*
X109747963Y-138985626D01*
X109696443Y-139155466D01*
X109612778Y-139311991D01*
X109583448Y-139347729D01*
X109500186Y-139449186D01*
X109405105Y-139527216D01*
X109362991Y-139561778D01*
X109206466Y-139645443D01*
X109036627Y-139696963D01*
X108860000Y-139714359D01*
X108683374Y-139696963D01*
X108513535Y-139645443D01*
X108357010Y-139561778D01*
X108219815Y-139449185D01*
X108107222Y-139311991D01*
X108023557Y-139155466D01*
X107972037Y-138985627D01*
X107959000Y-138853258D01*
X107959000Y-138514743D01*
X107972037Y-138382374D01*
X108023557Y-138212535D01*
X108107222Y-138056010D01*
X108107223Y-138056009D01*
X108219814Y-137918814D01*
X108338365Y-137821523D01*
X108357009Y-137806222D01*
X108513534Y-137722557D01*
X108683373Y-137671037D01*
X108860000Y-137653641D01*
X109036626Y-137671037D01*
G37*
G36*
X111536626Y-137671037D02*
G01*
X111706465Y-137722557D01*
X111706467Y-137722558D01*
X111862989Y-137806221D01*
X112000186Y-137918814D01*
X112083448Y-138020271D01*
X112112778Y-138056009D01*
X112196443Y-138212534D01*
X112247963Y-138382373D01*
X112254482Y-138448558D01*
X112261000Y-138514740D01*
X112261000Y-138853259D01*
X112256244Y-138901549D01*
X112247963Y-138985626D01*
X112196443Y-139155466D01*
X112112778Y-139311991D01*
X112083448Y-139347729D01*
X112000186Y-139449186D01*
X111905105Y-139527216D01*
X111862991Y-139561778D01*
X111706466Y-139645443D01*
X111536627Y-139696963D01*
X111360000Y-139714359D01*
X111183374Y-139696963D01*
X111013535Y-139645443D01*
X110857010Y-139561778D01*
X110719815Y-139449185D01*
X110607222Y-139311991D01*
X110523557Y-139155466D01*
X110472037Y-138985627D01*
X110459000Y-138853258D01*
X110459000Y-138514743D01*
X110472037Y-138382374D01*
X110523557Y-138212535D01*
X110607222Y-138056010D01*
X110607223Y-138056009D01*
X110719814Y-137918814D01*
X110838365Y-137821523D01*
X110857009Y-137806222D01*
X111013534Y-137722557D01*
X111183373Y-137671037D01*
X111360000Y-137653641D01*
X111536626Y-137671037D01*
G37*
G36*
X114036626Y-137671037D02*
G01*
X114206465Y-137722557D01*
X114206467Y-137722558D01*
X114362989Y-137806221D01*
X114500186Y-137918814D01*
X114583448Y-138020271D01*
X114612778Y-138056009D01*
X114696443Y-138212534D01*
X114747963Y-138382373D01*
X114754482Y-138448558D01*
X114761000Y-138514740D01*
X114761000Y-138853259D01*
X114756244Y-138901549D01*
X114747963Y-138985626D01*
X114696443Y-139155466D01*
X114612778Y-139311991D01*
X114583448Y-139347729D01*
X114500186Y-139449186D01*
X114405105Y-139527216D01*
X114362991Y-139561778D01*
X114206466Y-139645443D01*
X114036627Y-139696963D01*
X113860000Y-139714359D01*
X113683374Y-139696963D01*
X113513535Y-139645443D01*
X113357010Y-139561778D01*
X113219815Y-139449185D01*
X113107222Y-139311991D01*
X113023557Y-139155466D01*
X112972037Y-138985627D01*
X112959000Y-138853258D01*
X112959000Y-138514743D01*
X112972037Y-138382374D01*
X113023557Y-138212535D01*
X113107222Y-138056010D01*
X113107223Y-138056009D01*
X113219814Y-137918814D01*
X113338365Y-137821523D01*
X113357009Y-137806222D01*
X113513534Y-137722557D01*
X113683373Y-137671037D01*
X113860000Y-137653641D01*
X114036626Y-137671037D01*
G37*
G36*
X116536626Y-137671037D02*
G01*
X116706465Y-137722557D01*
X116706467Y-137722558D01*
X116862989Y-137806221D01*
X117000186Y-137918814D01*
X117083448Y-138020271D01*
X117112778Y-138056009D01*
X117196443Y-138212534D01*
X117247963Y-138382373D01*
X117254482Y-138448558D01*
X117261000Y-138514740D01*
X117261000Y-138853259D01*
X117256244Y-138901549D01*
X117247963Y-138985626D01*
X117196443Y-139155466D01*
X117112778Y-139311991D01*
X117083448Y-139347729D01*
X117000186Y-139449186D01*
X116905105Y-139527216D01*
X116862991Y-139561778D01*
X116706466Y-139645443D01*
X116536627Y-139696963D01*
X116360000Y-139714359D01*
X116183374Y-139696963D01*
X116013535Y-139645443D01*
X115857010Y-139561778D01*
X115719815Y-139449185D01*
X115607222Y-139311991D01*
X115523557Y-139155466D01*
X115472037Y-138985627D01*
X115459000Y-138853258D01*
X115459000Y-138514743D01*
X115472037Y-138382374D01*
X115523557Y-138212535D01*
X115607222Y-138056010D01*
X115607223Y-138056009D01*
X115719814Y-137918814D01*
X115838365Y-137821523D01*
X115857009Y-137806222D01*
X116013534Y-137722557D01*
X116183373Y-137671037D01*
X116360000Y-137653641D01*
X116536626Y-137671037D01*
G37*
G36*
X119036626Y-137671037D02*
G01*
X119206465Y-137722557D01*
X119206467Y-137722558D01*
X119362989Y-137806221D01*
X119500186Y-137918814D01*
X119583448Y-138020271D01*
X119612778Y-138056009D01*
X119696443Y-138212534D01*
X119747963Y-138382373D01*
X119754482Y-138448558D01*
X119761000Y-138514740D01*
X119761000Y-138853259D01*
X119756244Y-138901549D01*
X119747963Y-138985626D01*
X119696443Y-139155466D01*
X119612778Y-139311991D01*
X119583448Y-139347729D01*
X119500186Y-139449186D01*
X119405105Y-139527216D01*
X119362991Y-139561778D01*
X119206466Y-139645443D01*
X119036627Y-139696963D01*
X118860000Y-139714359D01*
X118683374Y-139696963D01*
X118513535Y-139645443D01*
X118357010Y-139561778D01*
X118219815Y-139449185D01*
X118107222Y-139311991D01*
X118023557Y-139155466D01*
X117972037Y-138985627D01*
X117959000Y-138853258D01*
X117959000Y-138514743D01*
X117972037Y-138382374D01*
X118023557Y-138212535D01*
X118107222Y-138056010D01*
X118107223Y-138056009D01*
X118219814Y-137918814D01*
X118338365Y-137821523D01*
X118357009Y-137806222D01*
X118513534Y-137722557D01*
X118683373Y-137671037D01*
X118860000Y-137653641D01*
X119036626Y-137671037D01*
G37*
G36*
X89036626Y-137671037D02*
G01*
X89206465Y-137722557D01*
X89206467Y-137722558D01*
X89362989Y-137806221D01*
X89500186Y-137918814D01*
X89583448Y-138020271D01*
X89612778Y-138056009D01*
X89696443Y-138212534D01*
X89747963Y-138382373D01*
X89754482Y-138448558D01*
X89761000Y-138514740D01*
X89761000Y-138853259D01*
X89756244Y-138901549D01*
X89747963Y-138985626D01*
X89696443Y-139155466D01*
X89612778Y-139311991D01*
X89583448Y-139347729D01*
X89500186Y-139449186D01*
X89405105Y-139527216D01*
X89362991Y-139561778D01*
X89206466Y-139645443D01*
X89036627Y-139696963D01*
X88860000Y-139714359D01*
X88683374Y-139696963D01*
X88513535Y-139645443D01*
X88357010Y-139561778D01*
X88219815Y-139449185D01*
X88107222Y-139311991D01*
X88023557Y-139155466D01*
X87972037Y-138985627D01*
X87959000Y-138853258D01*
X87959000Y-138514743D01*
X87972037Y-138382374D01*
X88023557Y-138212535D01*
X88107222Y-138056010D01*
X88107223Y-138056009D01*
X88219814Y-137918814D01*
X88338365Y-137821523D01*
X88357009Y-137806222D01*
X88513534Y-137722557D01*
X88683373Y-137671037D01*
X88860000Y-137653641D01*
X89036626Y-137671037D01*
G37*
G36*
X130438626Y-137671037D02*
G01*
X130608465Y-137722557D01*
X130608467Y-137722558D01*
X130764989Y-137806221D01*
X130902186Y-137918814D01*
X130985448Y-138020271D01*
X131014778Y-138056009D01*
X131098443Y-138212534D01*
X131149963Y-138382373D01*
X131156482Y-138448558D01*
X131163000Y-138514740D01*
X131163000Y-138853259D01*
X131158244Y-138901549D01*
X131149963Y-138985626D01*
X131098443Y-139155466D01*
X131014778Y-139311991D01*
X130985448Y-139347729D01*
X130902186Y-139449186D01*
X130807105Y-139527216D01*
X130764991Y-139561778D01*
X130608466Y-139645443D01*
X130438627Y-139696963D01*
X130262000Y-139714359D01*
X130085374Y-139696963D01*
X129915535Y-139645443D01*
X129759010Y-139561778D01*
X129621815Y-139449185D01*
X129509222Y-139311991D01*
X129425557Y-139155466D01*
X129374037Y-138985627D01*
X129361000Y-138853258D01*
X129361000Y-138514743D01*
X129374037Y-138382374D01*
X129425557Y-138212535D01*
X129509222Y-138056010D01*
X129509223Y-138056009D01*
X129621814Y-137918814D01*
X129740365Y-137821523D01*
X129759009Y-137806222D01*
X129915534Y-137722557D01*
X130085373Y-137671037D01*
X130262000Y-137653641D01*
X130438626Y-137671037D01*
G37*
G36*
X132938626Y-137671037D02*
G01*
X133108465Y-137722557D01*
X133108467Y-137722558D01*
X133264989Y-137806221D01*
X133402186Y-137918814D01*
X133485448Y-138020271D01*
X133514778Y-138056009D01*
X133598443Y-138212534D01*
X133649963Y-138382373D01*
X133656482Y-138448558D01*
X133663000Y-138514740D01*
X133663000Y-138853259D01*
X133658244Y-138901549D01*
X133649963Y-138985626D01*
X133598443Y-139155466D01*
X133514778Y-139311991D01*
X133485448Y-139347729D01*
X133402186Y-139449186D01*
X133307105Y-139527216D01*
X133264991Y-139561778D01*
X133108466Y-139645443D01*
X132938627Y-139696963D01*
X132762000Y-139714359D01*
X132585374Y-139696963D01*
X132415535Y-139645443D01*
X132259010Y-139561778D01*
X132121815Y-139449185D01*
X132009222Y-139311991D01*
X131925557Y-139155466D01*
X131874037Y-138985627D01*
X131861000Y-138853258D01*
X131861000Y-138514743D01*
X131874037Y-138382374D01*
X131925557Y-138212535D01*
X132009222Y-138056010D01*
X132009223Y-138056009D01*
X132121814Y-137918814D01*
X132240365Y-137821523D01*
X132259009Y-137806222D01*
X132415534Y-137722557D01*
X132585373Y-137671037D01*
X132762000Y-137653641D01*
X132938626Y-137671037D01*
G37*
G36*
X135438626Y-137671037D02*
G01*
X135608465Y-137722557D01*
X135608467Y-137722558D01*
X135764989Y-137806221D01*
X135902186Y-137918814D01*
X135985448Y-138020271D01*
X136014778Y-138056009D01*
X136098443Y-138212534D01*
X136149963Y-138382373D01*
X136156482Y-138448558D01*
X136163000Y-138514740D01*
X136163000Y-138853259D01*
X136158244Y-138901549D01*
X136149963Y-138985626D01*
X136098443Y-139155466D01*
X136014778Y-139311991D01*
X135985448Y-139347729D01*
X135902186Y-139449186D01*
X135807105Y-139527216D01*
X135764991Y-139561778D01*
X135608466Y-139645443D01*
X135438627Y-139696963D01*
X135262000Y-139714359D01*
X135085374Y-139696963D01*
X134915535Y-139645443D01*
X134759010Y-139561778D01*
X134621815Y-139449185D01*
X134509222Y-139311991D01*
X134425557Y-139155466D01*
X134374037Y-138985627D01*
X134361000Y-138853258D01*
X134361000Y-138514743D01*
X134374037Y-138382374D01*
X134425557Y-138212535D01*
X134509222Y-138056010D01*
X134509223Y-138056009D01*
X134621814Y-137918814D01*
X134740365Y-137821523D01*
X134759009Y-137806222D01*
X134915534Y-137722557D01*
X135085373Y-137671037D01*
X135262000Y-137653641D01*
X135438626Y-137671037D01*
G37*
G36*
X137938626Y-137671037D02*
G01*
X138108465Y-137722557D01*
X138108467Y-137722558D01*
X138264989Y-137806221D01*
X138402186Y-137918814D01*
X138485448Y-138020271D01*
X138514778Y-138056009D01*
X138598443Y-138212534D01*
X138649963Y-138382373D01*
X138656482Y-138448558D01*
X138663000Y-138514740D01*
X138663000Y-138853259D01*
X138658244Y-138901549D01*
X138649963Y-138985626D01*
X138598443Y-139155466D01*
X138514778Y-139311991D01*
X138485448Y-139347729D01*
X138402186Y-139449186D01*
X138307105Y-139527216D01*
X138264991Y-139561778D01*
X138108466Y-139645443D01*
X137938627Y-139696963D01*
X137762000Y-139714359D01*
X137585374Y-139696963D01*
X137415535Y-139645443D01*
X137259010Y-139561778D01*
X137121815Y-139449185D01*
X137009222Y-139311991D01*
X136925557Y-139155466D01*
X136874037Y-138985627D01*
X136861000Y-138853258D01*
X136861000Y-138514743D01*
X136874037Y-138382374D01*
X136925557Y-138212535D01*
X137009222Y-138056010D01*
X137009223Y-138056009D01*
X137121814Y-137918814D01*
X137240365Y-137821523D01*
X137259009Y-137806222D01*
X137415534Y-137722557D01*
X137585373Y-137671037D01*
X137762000Y-137653641D01*
X137938626Y-137671037D01*
G37*
G36*
X140438626Y-137671037D02*
G01*
X140608465Y-137722557D01*
X140608467Y-137722558D01*
X140764989Y-137806221D01*
X140902186Y-137918814D01*
X140985448Y-138020271D01*
X141014778Y-138056009D01*
X141098443Y-138212534D01*
X141149963Y-138382373D01*
X141156482Y-138448558D01*
X141163000Y-138514740D01*
X141163000Y-138853259D01*
X141158244Y-138901549D01*
X141149963Y-138985626D01*
X141098443Y-139155466D01*
X141014778Y-139311991D01*
X140985448Y-139347729D01*
X140902186Y-139449186D01*
X140807105Y-139527216D01*
X140764991Y-139561778D01*
X140608466Y-139645443D01*
X140438627Y-139696963D01*
X140262000Y-139714359D01*
X140085374Y-139696963D01*
X139915535Y-139645443D01*
X139759010Y-139561778D01*
X139621815Y-139449185D01*
X139509222Y-139311991D01*
X139425557Y-139155466D01*
X139374037Y-138985627D01*
X139361000Y-138853258D01*
X139361000Y-138514743D01*
X139374037Y-138382374D01*
X139425557Y-138212535D01*
X139509222Y-138056010D01*
X139509223Y-138056009D01*
X139621814Y-137918814D01*
X139740365Y-137821523D01*
X139759009Y-137806222D01*
X139915534Y-137722557D01*
X140085373Y-137671037D01*
X140262000Y-137653641D01*
X140438626Y-137671037D01*
G37*
G36*
X142938626Y-137671037D02*
G01*
X143108465Y-137722557D01*
X143108467Y-137722558D01*
X143264989Y-137806221D01*
X143402186Y-137918814D01*
X143485448Y-138020271D01*
X143514778Y-138056009D01*
X143598443Y-138212534D01*
X143649963Y-138382373D01*
X143656482Y-138448558D01*
X143663000Y-138514740D01*
X143663000Y-138853259D01*
X143658244Y-138901549D01*
X143649963Y-138985626D01*
X143598443Y-139155466D01*
X143514778Y-139311991D01*
X143485448Y-139347729D01*
X143402186Y-139449186D01*
X143307105Y-139527216D01*
X143264991Y-139561778D01*
X143108466Y-139645443D01*
X142938627Y-139696963D01*
X142762000Y-139714359D01*
X142585374Y-139696963D01*
X142415535Y-139645443D01*
X142259010Y-139561778D01*
X142121815Y-139449185D01*
X142009222Y-139311991D01*
X141925557Y-139155466D01*
X141874037Y-138985627D01*
X141861000Y-138853258D01*
X141861000Y-138514743D01*
X141874037Y-138382374D01*
X141925557Y-138212535D01*
X142009222Y-138056010D01*
X142009223Y-138056009D01*
X142121814Y-137918814D01*
X142240365Y-137821523D01*
X142259009Y-137806222D01*
X142415534Y-137722557D01*
X142585373Y-137671037D01*
X142762000Y-137653641D01*
X142938626Y-137671037D01*
G37*
G36*
X145438626Y-137671037D02*
G01*
X145608465Y-137722557D01*
X145608467Y-137722558D01*
X145764989Y-137806221D01*
X145902186Y-137918814D01*
X145985448Y-138020271D01*
X146014778Y-138056009D01*
X146098443Y-138212534D01*
X146149963Y-138382373D01*
X146156482Y-138448558D01*
X146163000Y-138514740D01*
X146163000Y-138853259D01*
X146158244Y-138901549D01*
X146149963Y-138985626D01*
X146098443Y-139155466D01*
X146014778Y-139311991D01*
X145985448Y-139347729D01*
X145902186Y-139449186D01*
X145807105Y-139527216D01*
X145764991Y-139561778D01*
X145608466Y-139645443D01*
X145438627Y-139696963D01*
X145262000Y-139714359D01*
X145085374Y-139696963D01*
X144915535Y-139645443D01*
X144759010Y-139561778D01*
X144621815Y-139449185D01*
X144509222Y-139311991D01*
X144425557Y-139155466D01*
X144374037Y-138985627D01*
X144361000Y-138853258D01*
X144361000Y-138514743D01*
X144374037Y-138382374D01*
X144425557Y-138212535D01*
X144509222Y-138056010D01*
X144509223Y-138056009D01*
X144621814Y-137918814D01*
X144740365Y-137821523D01*
X144759009Y-137806222D01*
X144915534Y-137722557D01*
X145085373Y-137671037D01*
X145262000Y-137653641D01*
X145438626Y-137671037D01*
G37*
G36*
X147938626Y-137671037D02*
G01*
X148108465Y-137722557D01*
X148108467Y-137722558D01*
X148264989Y-137806221D01*
X148402186Y-137918814D01*
X148485448Y-138020271D01*
X148514778Y-138056009D01*
X148598443Y-138212534D01*
X148649963Y-138382373D01*
X148656482Y-138448558D01*
X148663000Y-138514740D01*
X148663000Y-138853259D01*
X148658244Y-138901549D01*
X148649963Y-138985626D01*
X148598443Y-139155466D01*
X148514778Y-139311991D01*
X148485448Y-139347729D01*
X148402186Y-139449186D01*
X148307105Y-139527216D01*
X148264991Y-139561778D01*
X148108466Y-139645443D01*
X147938627Y-139696963D01*
X147762000Y-139714359D01*
X147585374Y-139696963D01*
X147415535Y-139645443D01*
X147259010Y-139561778D01*
X147121815Y-139449185D01*
X147009222Y-139311991D01*
X146925557Y-139155466D01*
X146874037Y-138985627D01*
X146861000Y-138853258D01*
X146861000Y-138514743D01*
X146874037Y-138382374D01*
X146925557Y-138212535D01*
X147009222Y-138056010D01*
X147009223Y-138056009D01*
X147121814Y-137918814D01*
X147240365Y-137821523D01*
X147259009Y-137806222D01*
X147415534Y-137722557D01*
X147585373Y-137671037D01*
X147762000Y-137653641D01*
X147938626Y-137671037D01*
G37*
G36*
X150438626Y-137671037D02*
G01*
X150608465Y-137722557D01*
X150608467Y-137722558D01*
X150764989Y-137806221D01*
X150902186Y-137918814D01*
X150985448Y-138020271D01*
X151014778Y-138056009D01*
X151098443Y-138212534D01*
X151149963Y-138382373D01*
X151156482Y-138448558D01*
X151163000Y-138514740D01*
X151163000Y-138853259D01*
X151158244Y-138901549D01*
X151149963Y-138985626D01*
X151098443Y-139155466D01*
X151014778Y-139311991D01*
X150985448Y-139347729D01*
X150902186Y-139449186D01*
X150807105Y-139527216D01*
X150764991Y-139561778D01*
X150608466Y-139645443D01*
X150438627Y-139696963D01*
X150262000Y-139714359D01*
X150085374Y-139696963D01*
X149915535Y-139645443D01*
X149759010Y-139561778D01*
X149621815Y-139449185D01*
X149509222Y-139311991D01*
X149425557Y-139155466D01*
X149374037Y-138985627D01*
X149361000Y-138853258D01*
X149361000Y-138514743D01*
X149374037Y-138382374D01*
X149425557Y-138212535D01*
X149509222Y-138056010D01*
X149509223Y-138056009D01*
X149621814Y-137918814D01*
X149740365Y-137821523D01*
X149759009Y-137806222D01*
X149915534Y-137722557D01*
X150085373Y-137671037D01*
X150262000Y-137653641D01*
X150438626Y-137671037D01*
G37*
G36*
X152938626Y-137671037D02*
G01*
X153108465Y-137722557D01*
X153108467Y-137722558D01*
X153264989Y-137806221D01*
X153402186Y-137918814D01*
X153485448Y-138020271D01*
X153514778Y-138056009D01*
X153598443Y-138212534D01*
X153649963Y-138382373D01*
X153656482Y-138448558D01*
X153663000Y-138514740D01*
X153663000Y-138853259D01*
X153658244Y-138901549D01*
X153649963Y-138985626D01*
X153598443Y-139155466D01*
X153514778Y-139311991D01*
X153485448Y-139347729D01*
X153402186Y-139449186D01*
X153307105Y-139527216D01*
X153264991Y-139561778D01*
X153108466Y-139645443D01*
X152938627Y-139696963D01*
X152762000Y-139714359D01*
X152585374Y-139696963D01*
X152415535Y-139645443D01*
X152259010Y-139561778D01*
X152121815Y-139449185D01*
X152009222Y-139311991D01*
X151925557Y-139155466D01*
X151874037Y-138985627D01*
X151861000Y-138853258D01*
X151861000Y-138514743D01*
X151874037Y-138382374D01*
X151925557Y-138212535D01*
X152009222Y-138056010D01*
X152009223Y-138056009D01*
X152121814Y-137918814D01*
X152240365Y-137821523D01*
X152259009Y-137806222D01*
X152415534Y-137722557D01*
X152585373Y-137671037D01*
X152762000Y-137653641D01*
X152938626Y-137671037D01*
G37*
G36*
X157938626Y-137671037D02*
G01*
X158108465Y-137722557D01*
X158108467Y-137722558D01*
X158264989Y-137806221D01*
X158402186Y-137918814D01*
X158485448Y-138020271D01*
X158514778Y-138056009D01*
X158598443Y-138212534D01*
X158649963Y-138382373D01*
X158656482Y-138448558D01*
X158663000Y-138514740D01*
X158663000Y-138853259D01*
X158658244Y-138901549D01*
X158649963Y-138985626D01*
X158598443Y-139155466D01*
X158514778Y-139311991D01*
X158485448Y-139347729D01*
X158402186Y-139449186D01*
X158307105Y-139527216D01*
X158264991Y-139561778D01*
X158108466Y-139645443D01*
X157938627Y-139696963D01*
X157762000Y-139714359D01*
X157585374Y-139696963D01*
X157415535Y-139645443D01*
X157259010Y-139561778D01*
X157121815Y-139449185D01*
X157009222Y-139311991D01*
X156925557Y-139155466D01*
X156874037Y-138985627D01*
X156861000Y-138853258D01*
X156861000Y-138514743D01*
X156874037Y-138382374D01*
X156925557Y-138212535D01*
X157009222Y-138056010D01*
X157009223Y-138056009D01*
X157121814Y-137918814D01*
X157240365Y-137821523D01*
X157259009Y-137806222D01*
X157415534Y-137722557D01*
X157585373Y-137671037D01*
X157762000Y-137653641D01*
X157938626Y-137671037D01*
G37*
G36*
X155438626Y-137671037D02*
G01*
X155608465Y-137722557D01*
X155608467Y-137722558D01*
X155764989Y-137806221D01*
X155902186Y-137918814D01*
X155985448Y-138020271D01*
X156014778Y-138056009D01*
X156098443Y-138212534D01*
X156149963Y-138382373D01*
X156156482Y-138448558D01*
X156163000Y-138514740D01*
X156163000Y-138853259D01*
X156158244Y-138901549D01*
X156149963Y-138985626D01*
X156098443Y-139155466D01*
X156014778Y-139311991D01*
X155985448Y-139347729D01*
X155902186Y-139449186D01*
X155807105Y-139527216D01*
X155764991Y-139561778D01*
X155608466Y-139645443D01*
X155438627Y-139696963D01*
X155262000Y-139714359D01*
X155085374Y-139696963D01*
X154915535Y-139645443D01*
X154759010Y-139561778D01*
X154621815Y-139449185D01*
X154509222Y-139311991D01*
X154425557Y-139155466D01*
X154374037Y-138985627D01*
X154361000Y-138853258D01*
X154361000Y-138514743D01*
X154374037Y-138382374D01*
X154425557Y-138212535D01*
X154509222Y-138056010D01*
X154509223Y-138056009D01*
X154621814Y-137918814D01*
X154740365Y-137821523D01*
X154759009Y-137806222D01*
X154915534Y-137722557D01*
X155085373Y-137671037D01*
X155262000Y-137653641D01*
X155438626Y-137671037D01*
G37*
G36*
X128520698Y-137661987D02*
G01*
X128553724Y-137672005D01*
X128584159Y-137688273D01*
X128610835Y-137710165D01*
X128632727Y-137736841D01*
X128648995Y-137767276D01*
X128659013Y-137800302D01*
X128663000Y-137840784D01*
X128663000Y-139527216D01*
X128659013Y-139567698D01*
X128648995Y-139600724D01*
X128632727Y-139631159D01*
X128610835Y-139657835D01*
X128584159Y-139679727D01*
X128553724Y-139695995D01*
X128520698Y-139706013D01*
X128480216Y-139710000D01*
X127043784Y-139710000D01*
X127003302Y-139706013D01*
X126970276Y-139695995D01*
X126939841Y-139679727D01*
X126913165Y-139657835D01*
X126891273Y-139631159D01*
X126875005Y-139600724D01*
X126864987Y-139567698D01*
X126861000Y-139527216D01*
X126861000Y-137840784D01*
X126864987Y-137800302D01*
X126875005Y-137767276D01*
X126891273Y-137736841D01*
X126913165Y-137710165D01*
X126939841Y-137688273D01*
X126970276Y-137672005D01*
X127003302Y-137661987D01*
X127043784Y-137658000D01*
X128480216Y-137658000D01*
X128520698Y-137661987D01*
G37*
G36*
X87118698Y-137661987D02*
G01*
X87151724Y-137672005D01*
X87182159Y-137688273D01*
X87208835Y-137710165D01*
X87230727Y-137736841D01*
X87246995Y-137767276D01*
X87257013Y-137800302D01*
X87261000Y-137840784D01*
X87261000Y-139527216D01*
X87257013Y-139567698D01*
X87246995Y-139600724D01*
X87230727Y-139631159D01*
X87208835Y-139657835D01*
X87182159Y-139679727D01*
X87151724Y-139695995D01*
X87118698Y-139706013D01*
X87078216Y-139710000D01*
X85641784Y-139710000D01*
X85601302Y-139706013D01*
X85568276Y-139695995D01*
X85537841Y-139679727D01*
X85511165Y-139657835D01*
X85489273Y-139631159D01*
X85473005Y-139600724D01*
X85462987Y-139567698D01*
X85459000Y-139527216D01*
X85459000Y-137840784D01*
X85462987Y-137800302D01*
X85473005Y-137767276D01*
X85489273Y-137736841D01*
X85511165Y-137710165D01*
X85537841Y-137688273D01*
X85568276Y-137672005D01*
X85601302Y-137661987D01*
X85641784Y-137658000D01*
X87078216Y-137658000D01*
X87118698Y-137661987D01*
G37*
G36*
X198426564Y-130053389D02*
G01*
X198617833Y-130132615D01*
X198617835Y-130132616D01*
X198789973Y-130247635D01*
X198936365Y-130394027D01*
X198965621Y-130437811D01*
X199051385Y-130566167D01*
X199130611Y-130757436D01*
X199171000Y-130960484D01*
X199171000Y-131167516D01*
X199130611Y-131370564D01*
X199051385Y-131561833D01*
X199051384Y-131561835D01*
X198936365Y-131733973D01*
X198789973Y-131880365D01*
X198617835Y-131995384D01*
X198617834Y-131995385D01*
X198617833Y-131995385D01*
X198426564Y-132074611D01*
X198223516Y-132115000D01*
X198016484Y-132115000D01*
X197813436Y-132074611D01*
X197622167Y-131995385D01*
X197622166Y-131995385D01*
X197622165Y-131995384D01*
X197450027Y-131880365D01*
X197303635Y-131733973D01*
X197188616Y-131561835D01*
X197188615Y-131561833D01*
X197109389Y-131370564D01*
X197069000Y-131167516D01*
X197069000Y-130960484D01*
X197109389Y-130757436D01*
X197188615Y-130566167D01*
X197274380Y-130437811D01*
X197303635Y-130394027D01*
X197450027Y-130247635D01*
X197622165Y-130132616D01*
X197622167Y-130132615D01*
X197813436Y-130053389D01*
X198016484Y-130013000D01*
X198223516Y-130013000D01*
X198426564Y-130053389D01*
G37*
G36*
X213326564Y-130053389D02*
G01*
X213517833Y-130132615D01*
X213517835Y-130132616D01*
X213689973Y-130247635D01*
X213836365Y-130394027D01*
X213865621Y-130437811D01*
X213951385Y-130566167D01*
X214030611Y-130757436D01*
X214071000Y-130960484D01*
X214071000Y-131167516D01*
X214030611Y-131370564D01*
X213951385Y-131561833D01*
X213951384Y-131561835D01*
X213836365Y-131733973D01*
X213689973Y-131880365D01*
X213517835Y-131995384D01*
X213517834Y-131995385D01*
X213517833Y-131995385D01*
X213326564Y-132074611D01*
X213123516Y-132115000D01*
X212916484Y-132115000D01*
X212713436Y-132074611D01*
X212522167Y-131995385D01*
X212522166Y-131995385D01*
X212522165Y-131995384D01*
X212350027Y-131880365D01*
X212203635Y-131733973D01*
X212088616Y-131561835D01*
X212088615Y-131561833D01*
X212009389Y-131370564D01*
X211969000Y-131167516D01*
X211969000Y-130960484D01*
X212009389Y-130757436D01*
X212088615Y-130566167D01*
X212174380Y-130437811D01*
X212203635Y-130394027D01*
X212350027Y-130247635D01*
X212522165Y-130132616D01*
X212522167Y-130132615D01*
X212713436Y-130053389D01*
X212916484Y-130013000D01*
X213123516Y-130013000D01*
X213326564Y-130053389D01*
G37*
G36*
X171722481Y-128266814D02*
G01*
X171902410Y-128302604D01*
X172184674Y-128419521D01*
X172438705Y-128589259D01*
X172654741Y-128805295D01*
X172824479Y-129059326D01*
X172941396Y-129341590D01*
X172941396Y-129341591D01*
X173001000Y-129641239D01*
X173001000Y-129946761D01*
X172979790Y-130053389D01*
X172941396Y-130246410D01*
X172824479Y-130528674D01*
X172654741Y-130782705D01*
X172438705Y-130998741D01*
X172184674Y-131168479D01*
X171902410Y-131285396D01*
X171752585Y-131315198D01*
X171602761Y-131345000D01*
X171297239Y-131345000D01*
X171147415Y-131315198D01*
X170997590Y-131285396D01*
X170715326Y-131168479D01*
X170461295Y-130998741D01*
X170245259Y-130782705D01*
X170075521Y-130528674D01*
X169958604Y-130246410D01*
X169920210Y-130053389D01*
X169899000Y-129946761D01*
X169899000Y-129641239D01*
X169958604Y-129341591D01*
X169958604Y-129341590D01*
X170075521Y-129059326D01*
X170245259Y-128805295D01*
X170461295Y-128589259D01*
X170715326Y-128419521D01*
X170997590Y-128302604D01*
X171177519Y-128266814D01*
X171297239Y-128243000D01*
X171602761Y-128243000D01*
X171722481Y-128266814D01*
G37*
G36*
X194322481Y-128266814D02*
G01*
X194502410Y-128302604D01*
X194784674Y-128419521D01*
X195038705Y-128589259D01*
X195254741Y-128805295D01*
X195424479Y-129059326D01*
X195541396Y-129341590D01*
X195541396Y-129341591D01*
X195601000Y-129641239D01*
X195601000Y-129946761D01*
X195579790Y-130053389D01*
X195541396Y-130246410D01*
X195424479Y-130528674D01*
X195254741Y-130782705D01*
X195038705Y-130998741D01*
X194784674Y-131168479D01*
X194502410Y-131285396D01*
X194352585Y-131315198D01*
X194202761Y-131345000D01*
X193897239Y-131345000D01*
X193747415Y-131315198D01*
X193597590Y-131285396D01*
X193315326Y-131168479D01*
X193061295Y-130998741D01*
X192845259Y-130782705D01*
X192675521Y-130528674D01*
X192558604Y-130246410D01*
X192520210Y-130053389D01*
X192499000Y-129946761D01*
X192499000Y-129641239D01*
X192558604Y-129341591D01*
X192558604Y-129341590D01*
X192675521Y-129059326D01*
X192845259Y-128805295D01*
X193061295Y-128589259D01*
X193315326Y-128419521D01*
X193597590Y-128302604D01*
X193777519Y-128266814D01*
X193897239Y-128243000D01*
X194202761Y-128243000D01*
X194322481Y-128266814D01*
G37*
G36*
X217283512Y-129278927D02*
G01*
X217432812Y-129308624D01*
X217596784Y-129376544D01*
X217744354Y-129475147D01*
X217869853Y-129600646D01*
X217968456Y-129748216D01*
X218036376Y-129912188D01*
X218071000Y-130086259D01*
X218071000Y-130263741D01*
X218036376Y-130437812D01*
X217968456Y-130601784D01*
X217869853Y-130749354D01*
X217744354Y-130874853D01*
X217596784Y-130973456D01*
X217432812Y-131041376D01*
X217283512Y-131071073D01*
X217258742Y-131076000D01*
X217081258Y-131076000D01*
X217056488Y-131071073D01*
X216907188Y-131041376D01*
X216743216Y-130973456D01*
X216595646Y-130874853D01*
X216470147Y-130749354D01*
X216371544Y-130601784D01*
X216303624Y-130437812D01*
X216269000Y-130263741D01*
X216269000Y-130086259D01*
X216303624Y-129912188D01*
X216371544Y-129748216D01*
X216470147Y-129600646D01*
X216595646Y-129475147D01*
X216743216Y-129376544D01*
X216907188Y-129308624D01*
X217056488Y-129278927D01*
X217081258Y-129274000D01*
X217258742Y-129274000D01*
X217283512Y-129278927D01*
G37*
G36*
X94036626Y-128019037D02*
G01*
X94206465Y-128070557D01*
X94206467Y-128070558D01*
X94362989Y-128154221D01*
X94500186Y-128266814D01*
X94556023Y-128334853D01*
X94612778Y-128404009D01*
X94696443Y-128560534D01*
X94747963Y-128730373D01*
X94761000Y-128862742D01*
X94761000Y-129201257D01*
X94747963Y-129333626D01*
X94696443Y-129503466D01*
X94612778Y-129659991D01*
X94583448Y-129695729D01*
X94500186Y-129797186D01*
X94405105Y-129875216D01*
X94362991Y-129909778D01*
X94206466Y-129993443D01*
X94036627Y-130044963D01*
X93860000Y-130062359D01*
X93683374Y-130044963D01*
X93513535Y-129993443D01*
X93357010Y-129909778D01*
X93219815Y-129797185D01*
X93107222Y-129659991D01*
X93023557Y-129503466D01*
X92972037Y-129333627D01*
X92959000Y-129201258D01*
X92959000Y-128862743D01*
X92972037Y-128730374D01*
X93023557Y-128560535D01*
X93055179Y-128501375D01*
X93107221Y-128404011D01*
X93219814Y-128266814D01*
X93338365Y-128169523D01*
X93357009Y-128154222D01*
X93513534Y-128070557D01*
X93683373Y-128019037D01*
X93860000Y-128001641D01*
X94036626Y-128019037D01*
G37*
G36*
X89036626Y-128019037D02*
G01*
X89206465Y-128070557D01*
X89206467Y-128070558D01*
X89362989Y-128154221D01*
X89500186Y-128266814D01*
X89556023Y-128334853D01*
X89612778Y-128404009D01*
X89696443Y-128560534D01*
X89747963Y-128730373D01*
X89761000Y-128862742D01*
X89761000Y-129201257D01*
X89747963Y-129333626D01*
X89696443Y-129503466D01*
X89612778Y-129659991D01*
X89583448Y-129695729D01*
X89500186Y-129797186D01*
X89405105Y-129875216D01*
X89362991Y-129909778D01*
X89206466Y-129993443D01*
X89036627Y-130044963D01*
X88860000Y-130062359D01*
X88683374Y-130044963D01*
X88513535Y-129993443D01*
X88357010Y-129909778D01*
X88219815Y-129797185D01*
X88107222Y-129659991D01*
X88023557Y-129503466D01*
X87972037Y-129333627D01*
X87959000Y-129201258D01*
X87959000Y-128862743D01*
X87972037Y-128730374D01*
X88023557Y-128560535D01*
X88055179Y-128501375D01*
X88107221Y-128404011D01*
X88219814Y-128266814D01*
X88338365Y-128169523D01*
X88357009Y-128154222D01*
X88513534Y-128070557D01*
X88683373Y-128019037D01*
X88860000Y-128001641D01*
X89036626Y-128019037D01*
G37*
G36*
X114036626Y-128019037D02*
G01*
X114206465Y-128070557D01*
X114206467Y-128070558D01*
X114362989Y-128154221D01*
X114500186Y-128266814D01*
X114556023Y-128334853D01*
X114612778Y-128404009D01*
X114696443Y-128560534D01*
X114747963Y-128730373D01*
X114761000Y-128862742D01*
X114761000Y-129201257D01*
X114747963Y-129333626D01*
X114696443Y-129503466D01*
X114612778Y-129659991D01*
X114583448Y-129695729D01*
X114500186Y-129797186D01*
X114405105Y-129875216D01*
X114362991Y-129909778D01*
X114206466Y-129993443D01*
X114036627Y-130044963D01*
X113860000Y-130062359D01*
X113683374Y-130044963D01*
X113513535Y-129993443D01*
X113357010Y-129909778D01*
X113219815Y-129797185D01*
X113107222Y-129659991D01*
X113023557Y-129503466D01*
X112972037Y-129333627D01*
X112959000Y-129201258D01*
X112959000Y-128862743D01*
X112972037Y-128730374D01*
X113023557Y-128560535D01*
X113055179Y-128501375D01*
X113107221Y-128404011D01*
X113219814Y-128266814D01*
X113338365Y-128169523D01*
X113357009Y-128154222D01*
X113513534Y-128070557D01*
X113683373Y-128019037D01*
X113860000Y-128001641D01*
X114036626Y-128019037D01*
G37*
G36*
X91536626Y-128019037D02*
G01*
X91706465Y-128070557D01*
X91706467Y-128070558D01*
X91862989Y-128154221D01*
X92000186Y-128266814D01*
X92056023Y-128334853D01*
X92112778Y-128404009D01*
X92196443Y-128560534D01*
X92247963Y-128730373D01*
X92261000Y-128862742D01*
X92261000Y-129201257D01*
X92247963Y-129333626D01*
X92196443Y-129503466D01*
X92112778Y-129659991D01*
X92083448Y-129695729D01*
X92000186Y-129797186D01*
X91905105Y-129875216D01*
X91862991Y-129909778D01*
X91706466Y-129993443D01*
X91536627Y-130044963D01*
X91360000Y-130062359D01*
X91183374Y-130044963D01*
X91013535Y-129993443D01*
X90857010Y-129909778D01*
X90719815Y-129797185D01*
X90607222Y-129659991D01*
X90523557Y-129503466D01*
X90472037Y-129333627D01*
X90459000Y-129201258D01*
X90459000Y-128862743D01*
X90472037Y-128730374D01*
X90523557Y-128560535D01*
X90555179Y-128501375D01*
X90607221Y-128404011D01*
X90719814Y-128266814D01*
X90838365Y-128169523D01*
X90857009Y-128154222D01*
X91013534Y-128070557D01*
X91183373Y-128019037D01*
X91360000Y-128001641D01*
X91536626Y-128019037D01*
G37*
G36*
X111536626Y-128019037D02*
G01*
X111706465Y-128070557D01*
X111706467Y-128070558D01*
X111862989Y-128154221D01*
X112000186Y-128266814D01*
X112056023Y-128334853D01*
X112112778Y-128404009D01*
X112196443Y-128560534D01*
X112247963Y-128730373D01*
X112261000Y-128862742D01*
X112261000Y-129201257D01*
X112247963Y-129333626D01*
X112196443Y-129503466D01*
X112112778Y-129659991D01*
X112083448Y-129695729D01*
X112000186Y-129797186D01*
X111905105Y-129875216D01*
X111862991Y-129909778D01*
X111706466Y-129993443D01*
X111536627Y-130044963D01*
X111360000Y-130062359D01*
X111183374Y-130044963D01*
X111013535Y-129993443D01*
X110857010Y-129909778D01*
X110719815Y-129797185D01*
X110607222Y-129659991D01*
X110523557Y-129503466D01*
X110472037Y-129333627D01*
X110459000Y-129201258D01*
X110459000Y-128862743D01*
X110472037Y-128730374D01*
X110523557Y-128560535D01*
X110555179Y-128501375D01*
X110607221Y-128404011D01*
X110719814Y-128266814D01*
X110838365Y-128169523D01*
X110857009Y-128154222D01*
X111013534Y-128070557D01*
X111183373Y-128019037D01*
X111360000Y-128001641D01*
X111536626Y-128019037D01*
G37*
G36*
X109036626Y-128019037D02*
G01*
X109206465Y-128070557D01*
X109206467Y-128070558D01*
X109362989Y-128154221D01*
X109500186Y-128266814D01*
X109556023Y-128334853D01*
X109612778Y-128404009D01*
X109696443Y-128560534D01*
X109747963Y-128730373D01*
X109761000Y-128862742D01*
X109761000Y-129201257D01*
X109747963Y-129333626D01*
X109696443Y-129503466D01*
X109612778Y-129659991D01*
X109583448Y-129695729D01*
X109500186Y-129797186D01*
X109405105Y-129875216D01*
X109362991Y-129909778D01*
X109206466Y-129993443D01*
X109036627Y-130044963D01*
X108860000Y-130062359D01*
X108683374Y-130044963D01*
X108513535Y-129993443D01*
X108357010Y-129909778D01*
X108219815Y-129797185D01*
X108107222Y-129659991D01*
X108023557Y-129503466D01*
X107972037Y-129333627D01*
X107959000Y-129201258D01*
X107959000Y-128862743D01*
X107972037Y-128730374D01*
X108023557Y-128560535D01*
X108055179Y-128501375D01*
X108107221Y-128404011D01*
X108219814Y-128266814D01*
X108338365Y-128169523D01*
X108357009Y-128154222D01*
X108513534Y-128070557D01*
X108683373Y-128019037D01*
X108860000Y-128001641D01*
X109036626Y-128019037D01*
G37*
G36*
X106536626Y-128019037D02*
G01*
X106706465Y-128070557D01*
X106706467Y-128070558D01*
X106862989Y-128154221D01*
X107000186Y-128266814D01*
X107056023Y-128334853D01*
X107112778Y-128404009D01*
X107196443Y-128560534D01*
X107247963Y-128730373D01*
X107261000Y-128862742D01*
X107261000Y-129201257D01*
X107247963Y-129333626D01*
X107196443Y-129503466D01*
X107112778Y-129659991D01*
X107083448Y-129695729D01*
X107000186Y-129797186D01*
X106905105Y-129875216D01*
X106862991Y-129909778D01*
X106706466Y-129993443D01*
X106536627Y-130044963D01*
X106360000Y-130062359D01*
X106183374Y-130044963D01*
X106013535Y-129993443D01*
X105857010Y-129909778D01*
X105719815Y-129797185D01*
X105607222Y-129659991D01*
X105523557Y-129503466D01*
X105472037Y-129333627D01*
X105459000Y-129201258D01*
X105459000Y-128862743D01*
X105472037Y-128730374D01*
X105523557Y-128560535D01*
X105555179Y-128501375D01*
X105607221Y-128404011D01*
X105719814Y-128266814D01*
X105838365Y-128169523D01*
X105857009Y-128154222D01*
X106013534Y-128070557D01*
X106183373Y-128019037D01*
X106360000Y-128001641D01*
X106536626Y-128019037D01*
G37*
G36*
X116536626Y-128019037D02*
G01*
X116706465Y-128070557D01*
X116706467Y-128070558D01*
X116862989Y-128154221D01*
X117000186Y-128266814D01*
X117056023Y-128334853D01*
X117112778Y-128404009D01*
X117196443Y-128560534D01*
X117247963Y-128730373D01*
X117261000Y-128862742D01*
X117261000Y-129201257D01*
X117247963Y-129333626D01*
X117196443Y-129503466D01*
X117112778Y-129659991D01*
X117083448Y-129695729D01*
X117000186Y-129797186D01*
X116905105Y-129875216D01*
X116862991Y-129909778D01*
X116706466Y-129993443D01*
X116536627Y-130044963D01*
X116360000Y-130062359D01*
X116183374Y-130044963D01*
X116013535Y-129993443D01*
X115857010Y-129909778D01*
X115719815Y-129797185D01*
X115607222Y-129659991D01*
X115523557Y-129503466D01*
X115472037Y-129333627D01*
X115459000Y-129201258D01*
X115459000Y-128862743D01*
X115472037Y-128730374D01*
X115523557Y-128560535D01*
X115555179Y-128501375D01*
X115607221Y-128404011D01*
X115719814Y-128266814D01*
X115838365Y-128169523D01*
X115857009Y-128154222D01*
X116013534Y-128070557D01*
X116183373Y-128019037D01*
X116360000Y-128001641D01*
X116536626Y-128019037D01*
G37*
G36*
X99036626Y-128019037D02*
G01*
X99206465Y-128070557D01*
X99206467Y-128070558D01*
X99362989Y-128154221D01*
X99500186Y-128266814D01*
X99556023Y-128334853D01*
X99612778Y-128404009D01*
X99696443Y-128560534D01*
X99747963Y-128730373D01*
X99761000Y-128862742D01*
X99761000Y-129201257D01*
X99747963Y-129333626D01*
X99696443Y-129503466D01*
X99612778Y-129659991D01*
X99583448Y-129695729D01*
X99500186Y-129797186D01*
X99405105Y-129875216D01*
X99362991Y-129909778D01*
X99206466Y-129993443D01*
X99036627Y-130044963D01*
X98860000Y-130062359D01*
X98683374Y-130044963D01*
X98513535Y-129993443D01*
X98357010Y-129909778D01*
X98219815Y-129797185D01*
X98107222Y-129659991D01*
X98023557Y-129503466D01*
X97972037Y-129333627D01*
X97959000Y-129201258D01*
X97959000Y-128862743D01*
X97972037Y-128730374D01*
X98023557Y-128560535D01*
X98055179Y-128501375D01*
X98107221Y-128404011D01*
X98219814Y-128266814D01*
X98338365Y-128169523D01*
X98357009Y-128154222D01*
X98513534Y-128070557D01*
X98683373Y-128019037D01*
X98860000Y-128001641D01*
X99036626Y-128019037D01*
G37*
G36*
X101536626Y-128019037D02*
G01*
X101706465Y-128070557D01*
X101706467Y-128070558D01*
X101862989Y-128154221D01*
X102000186Y-128266814D01*
X102056023Y-128334853D01*
X102112778Y-128404009D01*
X102196443Y-128560534D01*
X102247963Y-128730373D01*
X102261000Y-128862742D01*
X102261000Y-129201257D01*
X102247963Y-129333626D01*
X102196443Y-129503466D01*
X102112778Y-129659991D01*
X102083448Y-129695729D01*
X102000186Y-129797186D01*
X101905105Y-129875216D01*
X101862991Y-129909778D01*
X101706466Y-129993443D01*
X101536627Y-130044963D01*
X101360000Y-130062359D01*
X101183374Y-130044963D01*
X101013535Y-129993443D01*
X100857010Y-129909778D01*
X100719815Y-129797185D01*
X100607222Y-129659991D01*
X100523557Y-129503466D01*
X100472037Y-129333627D01*
X100459000Y-129201258D01*
X100459000Y-128862743D01*
X100472037Y-128730374D01*
X100523557Y-128560535D01*
X100555179Y-128501375D01*
X100607221Y-128404011D01*
X100719814Y-128266814D01*
X100838365Y-128169523D01*
X100857009Y-128154222D01*
X101013534Y-128070557D01*
X101183373Y-128019037D01*
X101360000Y-128001641D01*
X101536626Y-128019037D01*
G37*
G36*
X104036626Y-128019037D02*
G01*
X104206465Y-128070557D01*
X104206467Y-128070558D01*
X104362989Y-128154221D01*
X104500186Y-128266814D01*
X104556023Y-128334853D01*
X104612778Y-128404009D01*
X104696443Y-128560534D01*
X104747963Y-128730373D01*
X104761000Y-128862742D01*
X104761000Y-129201257D01*
X104747963Y-129333626D01*
X104696443Y-129503466D01*
X104612778Y-129659991D01*
X104583448Y-129695729D01*
X104500186Y-129797186D01*
X104405105Y-129875216D01*
X104362991Y-129909778D01*
X104206466Y-129993443D01*
X104036627Y-130044963D01*
X103860000Y-130062359D01*
X103683374Y-130044963D01*
X103513535Y-129993443D01*
X103357010Y-129909778D01*
X103219815Y-129797185D01*
X103107222Y-129659991D01*
X103023557Y-129503466D01*
X102972037Y-129333627D01*
X102959000Y-129201258D01*
X102959000Y-128862743D01*
X102972037Y-128730374D01*
X103023557Y-128560535D01*
X103055179Y-128501375D01*
X103107221Y-128404011D01*
X103219814Y-128266814D01*
X103338365Y-128169523D01*
X103357009Y-128154222D01*
X103513534Y-128070557D01*
X103683373Y-128019037D01*
X103860000Y-128001641D01*
X104036626Y-128019037D01*
G37*
G36*
X119036626Y-128019037D02*
G01*
X119206465Y-128070557D01*
X119206467Y-128070558D01*
X119362989Y-128154221D01*
X119500186Y-128266814D01*
X119556023Y-128334853D01*
X119612778Y-128404009D01*
X119696443Y-128560534D01*
X119747963Y-128730373D01*
X119761000Y-128862742D01*
X119761000Y-129201257D01*
X119747963Y-129333626D01*
X119696443Y-129503466D01*
X119612778Y-129659991D01*
X119583448Y-129695729D01*
X119500186Y-129797186D01*
X119405105Y-129875216D01*
X119362991Y-129909778D01*
X119206466Y-129993443D01*
X119036627Y-130044963D01*
X118860000Y-130062359D01*
X118683374Y-130044963D01*
X118513535Y-129993443D01*
X118357010Y-129909778D01*
X118219815Y-129797185D01*
X118107222Y-129659991D01*
X118023557Y-129503466D01*
X117972037Y-129333627D01*
X117959000Y-129201258D01*
X117959000Y-128862743D01*
X117972037Y-128730374D01*
X118023557Y-128560535D01*
X118055179Y-128501375D01*
X118107221Y-128404011D01*
X118219814Y-128266814D01*
X118338365Y-128169523D01*
X118357009Y-128154222D01*
X118513534Y-128070557D01*
X118683373Y-128019037D01*
X118860000Y-128001641D01*
X119036626Y-128019037D01*
G37*
G36*
X96536626Y-128019037D02*
G01*
X96706465Y-128070557D01*
X96706467Y-128070558D01*
X96862989Y-128154221D01*
X97000186Y-128266814D01*
X97056023Y-128334853D01*
X97112778Y-128404009D01*
X97196443Y-128560534D01*
X97247963Y-128730373D01*
X97261000Y-128862742D01*
X97261000Y-129201257D01*
X97247963Y-129333626D01*
X97196443Y-129503466D01*
X97112778Y-129659991D01*
X97083448Y-129695729D01*
X97000186Y-129797186D01*
X96905105Y-129875216D01*
X96862991Y-129909778D01*
X96706466Y-129993443D01*
X96536627Y-130044963D01*
X96360000Y-130062359D01*
X96183374Y-130044963D01*
X96013535Y-129993443D01*
X95857010Y-129909778D01*
X95719815Y-129797185D01*
X95607222Y-129659991D01*
X95523557Y-129503466D01*
X95472037Y-129333627D01*
X95459000Y-129201258D01*
X95459000Y-128862743D01*
X95472037Y-128730374D01*
X95523557Y-128560535D01*
X95555179Y-128501375D01*
X95607221Y-128404011D01*
X95719814Y-128266814D01*
X95838365Y-128169523D01*
X95857009Y-128154222D01*
X96013534Y-128070557D01*
X96183373Y-128019037D01*
X96360000Y-128001641D01*
X96536626Y-128019037D01*
G37*
G36*
X87118698Y-128009987D02*
G01*
X87151724Y-128020005D01*
X87182159Y-128036273D01*
X87208835Y-128058165D01*
X87230727Y-128084841D01*
X87246995Y-128115276D01*
X87257013Y-128148302D01*
X87261000Y-128188784D01*
X87261000Y-129875216D01*
X87257013Y-129915698D01*
X87246995Y-129948724D01*
X87230727Y-129979159D01*
X87208835Y-130005835D01*
X87182159Y-130027727D01*
X87151724Y-130043995D01*
X87118698Y-130054013D01*
X87078216Y-130058000D01*
X85641784Y-130058000D01*
X85601302Y-130054013D01*
X85568276Y-130043995D01*
X85537841Y-130027727D01*
X85511165Y-130005835D01*
X85489273Y-129979159D01*
X85473005Y-129948724D01*
X85462987Y-129915698D01*
X85459000Y-129875216D01*
X85459000Y-128188784D01*
X85462987Y-128148302D01*
X85473005Y-128115276D01*
X85489273Y-128084841D01*
X85511165Y-128058165D01*
X85537841Y-128036273D01*
X85568276Y-128020005D01*
X85601302Y-128009987D01*
X85641784Y-128006000D01*
X87078216Y-128006000D01*
X87118698Y-128009987D01*
G37*
G36*
X217283512Y-126738927D02*
G01*
X217432812Y-126768624D01*
X217596784Y-126836544D01*
X217744354Y-126935147D01*
X217869853Y-127060646D01*
X217968456Y-127208216D01*
X218036376Y-127372188D01*
X218071000Y-127546259D01*
X218071000Y-127723741D01*
X218036376Y-127897812D01*
X217968456Y-128061784D01*
X217869853Y-128209354D01*
X217744354Y-128334853D01*
X217596784Y-128433456D01*
X217432812Y-128501376D01*
X217283512Y-128531073D01*
X217258742Y-128536000D01*
X217081258Y-128536000D01*
X217056488Y-128531073D01*
X216907188Y-128501376D01*
X216743216Y-128433456D01*
X216595646Y-128334853D01*
X216470147Y-128209354D01*
X216371544Y-128061784D01*
X216303624Y-127897812D01*
X216269000Y-127723741D01*
X216269000Y-127546259D01*
X216303624Y-127372188D01*
X216371544Y-127208216D01*
X216470147Y-127060646D01*
X216595646Y-126935147D01*
X216743216Y-126836544D01*
X216907188Y-126768624D01*
X217056488Y-126738927D01*
X217081258Y-126734000D01*
X217258742Y-126734000D01*
X217283512Y-126738927D01*
G37*
G36*
X217283512Y-124198927D02*
G01*
X217432812Y-124228624D01*
X217596784Y-124296544D01*
X217744354Y-124395147D01*
X217869853Y-124520646D01*
X217968456Y-124668216D01*
X218036376Y-124832188D01*
X218071000Y-125006259D01*
X218071000Y-125183741D01*
X218036376Y-125357812D01*
X217968456Y-125521784D01*
X217869853Y-125669354D01*
X217744354Y-125794853D01*
X217596784Y-125893456D01*
X217432812Y-125961376D01*
X217283512Y-125991073D01*
X217258742Y-125996000D01*
X217081258Y-125996000D01*
X217056488Y-125991073D01*
X216907188Y-125961376D01*
X216743216Y-125893456D01*
X216595646Y-125794853D01*
X216470147Y-125669354D01*
X216371544Y-125521784D01*
X216303624Y-125357812D01*
X216269000Y-125183741D01*
X216269000Y-125006259D01*
X216303624Y-124832188D01*
X216371544Y-124668216D01*
X216470147Y-124520646D01*
X216595646Y-124395147D01*
X216743216Y-124296544D01*
X216907188Y-124228624D01*
X217056488Y-124198927D01*
X217081258Y-124194000D01*
X217258742Y-124194000D01*
X217283512Y-124198927D01*
G37*
G36*
X217283512Y-121658927D02*
G01*
X217432812Y-121688624D01*
X217596784Y-121756544D01*
X217744354Y-121855147D01*
X217869853Y-121980646D01*
X217968456Y-122128216D01*
X218036376Y-122292188D01*
X218071000Y-122466259D01*
X218071000Y-122643741D01*
X218036376Y-122817812D01*
X217968456Y-122981784D01*
X217869853Y-123129354D01*
X217744354Y-123254853D01*
X217596784Y-123353456D01*
X217432812Y-123421376D01*
X217283512Y-123451073D01*
X217258742Y-123456000D01*
X217081258Y-123456000D01*
X217056488Y-123451073D01*
X216907188Y-123421376D01*
X216743216Y-123353456D01*
X216595646Y-123254853D01*
X216470147Y-123129354D01*
X216371544Y-122981784D01*
X216303624Y-122817812D01*
X216269000Y-122643741D01*
X216269000Y-122466259D01*
X216303624Y-122292188D01*
X216371544Y-122128216D01*
X216470147Y-121980646D01*
X216595646Y-121855147D01*
X216743216Y-121756544D01*
X216907188Y-121688624D01*
X217056488Y-121658927D01*
X217081258Y-121654000D01*
X217258742Y-121654000D01*
X217283512Y-121658927D01*
G37*
G36*
X218071000Y-120916000D02*
G01*
X216269000Y-120916000D01*
X216269000Y-119114000D01*
X218071000Y-119114000D01*
X218071000Y-120916000D01*
G37*
G36*
X89036626Y-117732037D02*
G01*
X89206465Y-117783557D01*
X89206467Y-117783558D01*
X89362989Y-117867221D01*
X89500186Y-117979814D01*
X89583448Y-118081271D01*
X89612778Y-118117009D01*
X89696443Y-118273534D01*
X89747963Y-118443373D01*
X89761000Y-118575742D01*
X89761000Y-118914257D01*
X89747963Y-119046626D01*
X89696443Y-119216466D01*
X89612778Y-119372991D01*
X89583448Y-119408729D01*
X89500186Y-119510186D01*
X89405105Y-119588216D01*
X89362991Y-119622778D01*
X89206466Y-119706443D01*
X89036627Y-119757963D01*
X88860000Y-119775359D01*
X88683374Y-119757963D01*
X88513535Y-119706443D01*
X88357010Y-119622778D01*
X88219815Y-119510185D01*
X88107222Y-119372991D01*
X88023557Y-119216466D01*
X87972037Y-119046627D01*
X87959000Y-118914258D01*
X87959000Y-118575743D01*
X87972037Y-118443374D01*
X88023557Y-118273535D01*
X88107222Y-118117010D01*
X88107223Y-118117009D01*
X88219814Y-117979814D01*
X88338365Y-117882523D01*
X88357009Y-117867222D01*
X88513534Y-117783557D01*
X88683373Y-117732037D01*
X88860000Y-117714641D01*
X89036626Y-117732037D01*
G37*
G36*
X91536626Y-117732037D02*
G01*
X91706465Y-117783557D01*
X91706467Y-117783558D01*
X91862989Y-117867221D01*
X92000186Y-117979814D01*
X92083448Y-118081271D01*
X92112778Y-118117009D01*
X92196443Y-118273534D01*
X92247963Y-118443373D01*
X92261000Y-118575742D01*
X92261000Y-118914257D01*
X92247963Y-119046626D01*
X92196443Y-119216466D01*
X92112778Y-119372991D01*
X92083448Y-119408729D01*
X92000186Y-119510186D01*
X91905105Y-119588216D01*
X91862991Y-119622778D01*
X91706466Y-119706443D01*
X91536627Y-119757963D01*
X91360000Y-119775359D01*
X91183374Y-119757963D01*
X91013535Y-119706443D01*
X90857010Y-119622778D01*
X90719815Y-119510185D01*
X90607222Y-119372991D01*
X90523557Y-119216466D01*
X90472037Y-119046627D01*
X90459000Y-118914258D01*
X90459000Y-118575743D01*
X90472037Y-118443374D01*
X90523557Y-118273535D01*
X90607222Y-118117010D01*
X90607223Y-118117009D01*
X90719814Y-117979814D01*
X90838365Y-117882523D01*
X90857009Y-117867222D01*
X91013534Y-117783557D01*
X91183373Y-117732037D01*
X91360000Y-117714641D01*
X91536626Y-117732037D01*
G37*
G36*
X94036626Y-117732037D02*
G01*
X94206465Y-117783557D01*
X94206467Y-117783558D01*
X94362989Y-117867221D01*
X94500186Y-117979814D01*
X94583448Y-118081271D01*
X94612778Y-118117009D01*
X94696443Y-118273534D01*
X94747963Y-118443373D01*
X94761000Y-118575742D01*
X94761000Y-118914257D01*
X94747963Y-119046626D01*
X94696443Y-119216466D01*
X94612778Y-119372991D01*
X94583448Y-119408729D01*
X94500186Y-119510186D01*
X94405105Y-119588216D01*
X94362991Y-119622778D01*
X94206466Y-119706443D01*
X94036627Y-119757963D01*
X93860000Y-119775359D01*
X93683374Y-119757963D01*
X93513535Y-119706443D01*
X93357010Y-119622778D01*
X93219815Y-119510185D01*
X93107222Y-119372991D01*
X93023557Y-119216466D01*
X92972037Y-119046627D01*
X92959000Y-118914258D01*
X92959000Y-118575743D01*
X92972037Y-118443374D01*
X93023557Y-118273535D01*
X93107222Y-118117010D01*
X93107223Y-118117009D01*
X93219814Y-117979814D01*
X93338365Y-117882523D01*
X93357009Y-117867222D01*
X93513534Y-117783557D01*
X93683373Y-117732037D01*
X93860000Y-117714641D01*
X94036626Y-117732037D01*
G37*
G36*
X96536626Y-117732037D02*
G01*
X96706465Y-117783557D01*
X96706467Y-117783558D01*
X96862989Y-117867221D01*
X97000186Y-117979814D01*
X97083448Y-118081271D01*
X97112778Y-118117009D01*
X97196443Y-118273534D01*
X97247963Y-118443373D01*
X97261000Y-118575742D01*
X97261000Y-118914257D01*
X97247963Y-119046626D01*
X97196443Y-119216466D01*
X97112778Y-119372991D01*
X97083448Y-119408729D01*
X97000186Y-119510186D01*
X96905105Y-119588216D01*
X96862991Y-119622778D01*
X96706466Y-119706443D01*
X96536627Y-119757963D01*
X96360000Y-119775359D01*
X96183374Y-119757963D01*
X96013535Y-119706443D01*
X95857010Y-119622778D01*
X95719815Y-119510185D01*
X95607222Y-119372991D01*
X95523557Y-119216466D01*
X95472037Y-119046627D01*
X95459000Y-118914258D01*
X95459000Y-118575743D01*
X95472037Y-118443374D01*
X95523557Y-118273535D01*
X95607222Y-118117010D01*
X95607223Y-118117009D01*
X95719814Y-117979814D01*
X95838365Y-117882523D01*
X95857009Y-117867222D01*
X96013534Y-117783557D01*
X96183373Y-117732037D01*
X96360000Y-117714641D01*
X96536626Y-117732037D01*
G37*
G36*
X99036626Y-117732037D02*
G01*
X99206465Y-117783557D01*
X99206467Y-117783558D01*
X99362989Y-117867221D01*
X99500186Y-117979814D01*
X99583448Y-118081271D01*
X99612778Y-118117009D01*
X99696443Y-118273534D01*
X99747963Y-118443373D01*
X99761000Y-118575742D01*
X99761000Y-118914257D01*
X99747963Y-119046626D01*
X99696443Y-119216466D01*
X99612778Y-119372991D01*
X99583448Y-119408729D01*
X99500186Y-119510186D01*
X99405105Y-119588216D01*
X99362991Y-119622778D01*
X99206466Y-119706443D01*
X99036627Y-119757963D01*
X98860000Y-119775359D01*
X98683374Y-119757963D01*
X98513535Y-119706443D01*
X98357010Y-119622778D01*
X98219815Y-119510185D01*
X98107222Y-119372991D01*
X98023557Y-119216466D01*
X97972037Y-119046627D01*
X97959000Y-118914258D01*
X97959000Y-118575743D01*
X97972037Y-118443374D01*
X98023557Y-118273535D01*
X98107222Y-118117010D01*
X98107223Y-118117009D01*
X98219814Y-117979814D01*
X98338365Y-117882523D01*
X98357009Y-117867222D01*
X98513534Y-117783557D01*
X98683373Y-117732037D01*
X98860000Y-117714641D01*
X99036626Y-117732037D01*
G37*
G36*
X106536626Y-117732037D02*
G01*
X106706465Y-117783557D01*
X106706467Y-117783558D01*
X106862989Y-117867221D01*
X107000186Y-117979814D01*
X107083448Y-118081271D01*
X107112778Y-118117009D01*
X107196443Y-118273534D01*
X107247963Y-118443373D01*
X107261000Y-118575742D01*
X107261000Y-118914257D01*
X107247963Y-119046626D01*
X107196443Y-119216466D01*
X107112778Y-119372991D01*
X107083448Y-119408729D01*
X107000186Y-119510186D01*
X106905105Y-119588216D01*
X106862991Y-119622778D01*
X106706466Y-119706443D01*
X106536627Y-119757963D01*
X106360000Y-119775359D01*
X106183374Y-119757963D01*
X106013535Y-119706443D01*
X105857010Y-119622778D01*
X105719815Y-119510185D01*
X105607222Y-119372991D01*
X105523557Y-119216466D01*
X105472037Y-119046627D01*
X105459000Y-118914258D01*
X105459000Y-118575743D01*
X105472037Y-118443374D01*
X105523557Y-118273535D01*
X105607222Y-118117010D01*
X105607223Y-118117009D01*
X105719814Y-117979814D01*
X105838365Y-117882523D01*
X105857009Y-117867222D01*
X106013534Y-117783557D01*
X106183373Y-117732037D01*
X106360000Y-117714641D01*
X106536626Y-117732037D01*
G37*
G36*
X101536626Y-117732037D02*
G01*
X101706465Y-117783557D01*
X101706467Y-117783558D01*
X101862989Y-117867221D01*
X102000186Y-117979814D01*
X102083448Y-118081271D01*
X102112778Y-118117009D01*
X102196443Y-118273534D01*
X102247963Y-118443373D01*
X102261000Y-118575742D01*
X102261000Y-118914257D01*
X102247963Y-119046626D01*
X102196443Y-119216466D01*
X102112778Y-119372991D01*
X102083448Y-119408729D01*
X102000186Y-119510186D01*
X101905105Y-119588216D01*
X101862991Y-119622778D01*
X101706466Y-119706443D01*
X101536627Y-119757963D01*
X101360000Y-119775359D01*
X101183374Y-119757963D01*
X101013535Y-119706443D01*
X100857010Y-119622778D01*
X100719815Y-119510185D01*
X100607222Y-119372991D01*
X100523557Y-119216466D01*
X100472037Y-119046627D01*
X100459000Y-118914258D01*
X100459000Y-118575743D01*
X100472037Y-118443374D01*
X100523557Y-118273535D01*
X100607222Y-118117010D01*
X100607223Y-118117009D01*
X100719814Y-117979814D01*
X100838365Y-117882523D01*
X100857009Y-117867222D01*
X101013534Y-117783557D01*
X101183373Y-117732037D01*
X101360000Y-117714641D01*
X101536626Y-117732037D01*
G37*
G36*
X111536626Y-117732037D02*
G01*
X111706465Y-117783557D01*
X111706467Y-117783558D01*
X111862989Y-117867221D01*
X112000186Y-117979814D01*
X112083448Y-118081271D01*
X112112778Y-118117009D01*
X112196443Y-118273534D01*
X112247963Y-118443373D01*
X112261000Y-118575742D01*
X112261000Y-118914257D01*
X112247963Y-119046626D01*
X112196443Y-119216466D01*
X112112778Y-119372991D01*
X112083448Y-119408729D01*
X112000186Y-119510186D01*
X111905105Y-119588216D01*
X111862991Y-119622778D01*
X111706466Y-119706443D01*
X111536627Y-119757963D01*
X111360000Y-119775359D01*
X111183374Y-119757963D01*
X111013535Y-119706443D01*
X110857010Y-119622778D01*
X110719815Y-119510185D01*
X110607222Y-119372991D01*
X110523557Y-119216466D01*
X110472037Y-119046627D01*
X110459000Y-118914258D01*
X110459000Y-118575743D01*
X110472037Y-118443374D01*
X110523557Y-118273535D01*
X110607222Y-118117010D01*
X110607223Y-118117009D01*
X110719814Y-117979814D01*
X110838365Y-117882523D01*
X110857009Y-117867222D01*
X111013534Y-117783557D01*
X111183373Y-117732037D01*
X111360000Y-117714641D01*
X111536626Y-117732037D01*
G37*
G36*
X104036626Y-117732037D02*
G01*
X104206465Y-117783557D01*
X104206467Y-117783558D01*
X104362989Y-117867221D01*
X104500186Y-117979814D01*
X104583448Y-118081271D01*
X104612778Y-118117009D01*
X104696443Y-118273534D01*
X104747963Y-118443373D01*
X104761000Y-118575742D01*
X104761000Y-118914257D01*
X104747963Y-119046626D01*
X104696443Y-119216466D01*
X104612778Y-119372991D01*
X104583448Y-119408729D01*
X104500186Y-119510186D01*
X104405105Y-119588216D01*
X104362991Y-119622778D01*
X104206466Y-119706443D01*
X104036627Y-119757963D01*
X103860000Y-119775359D01*
X103683374Y-119757963D01*
X103513535Y-119706443D01*
X103357010Y-119622778D01*
X103219815Y-119510185D01*
X103107222Y-119372991D01*
X103023557Y-119216466D01*
X102972037Y-119046627D01*
X102959000Y-118914258D01*
X102959000Y-118575743D01*
X102972037Y-118443374D01*
X103023557Y-118273535D01*
X103107222Y-118117010D01*
X103107223Y-118117009D01*
X103219814Y-117979814D01*
X103338365Y-117882523D01*
X103357009Y-117867222D01*
X103513534Y-117783557D01*
X103683373Y-117732037D01*
X103860000Y-117714641D01*
X104036626Y-117732037D01*
G37*
G36*
X109036626Y-117732037D02*
G01*
X109206465Y-117783557D01*
X109206467Y-117783558D01*
X109362989Y-117867221D01*
X109500186Y-117979814D01*
X109583448Y-118081271D01*
X109612778Y-118117009D01*
X109696443Y-118273534D01*
X109747963Y-118443373D01*
X109761000Y-118575742D01*
X109761000Y-118914257D01*
X109747963Y-119046626D01*
X109696443Y-119216466D01*
X109612778Y-119372991D01*
X109583448Y-119408729D01*
X109500186Y-119510186D01*
X109405105Y-119588216D01*
X109362991Y-119622778D01*
X109206466Y-119706443D01*
X109036627Y-119757963D01*
X108860000Y-119775359D01*
X108683374Y-119757963D01*
X108513535Y-119706443D01*
X108357010Y-119622778D01*
X108219815Y-119510185D01*
X108107222Y-119372991D01*
X108023557Y-119216466D01*
X107972037Y-119046627D01*
X107959000Y-118914258D01*
X107959000Y-118575743D01*
X107972037Y-118443374D01*
X108023557Y-118273535D01*
X108107222Y-118117010D01*
X108107223Y-118117009D01*
X108219814Y-117979814D01*
X108338365Y-117882523D01*
X108357009Y-117867222D01*
X108513534Y-117783557D01*
X108683373Y-117732037D01*
X108860000Y-117714641D01*
X109036626Y-117732037D01*
G37*
G36*
X119036626Y-117732037D02*
G01*
X119206465Y-117783557D01*
X119206467Y-117783558D01*
X119362989Y-117867221D01*
X119500186Y-117979814D01*
X119583448Y-118081271D01*
X119612778Y-118117009D01*
X119696443Y-118273534D01*
X119747963Y-118443373D01*
X119761000Y-118575742D01*
X119761000Y-118914257D01*
X119747963Y-119046626D01*
X119696443Y-119216466D01*
X119612778Y-119372991D01*
X119583448Y-119408729D01*
X119500186Y-119510186D01*
X119405105Y-119588216D01*
X119362991Y-119622778D01*
X119206466Y-119706443D01*
X119036627Y-119757963D01*
X118860000Y-119775359D01*
X118683374Y-119757963D01*
X118513535Y-119706443D01*
X118357010Y-119622778D01*
X118219815Y-119510185D01*
X118107222Y-119372991D01*
X118023557Y-119216466D01*
X117972037Y-119046627D01*
X117959000Y-118914258D01*
X117959000Y-118575743D01*
X117972037Y-118443374D01*
X118023557Y-118273535D01*
X118107222Y-118117010D01*
X118107223Y-118117009D01*
X118219814Y-117979814D01*
X118338365Y-117882523D01*
X118357009Y-117867222D01*
X118513534Y-117783557D01*
X118683373Y-117732037D01*
X118860000Y-117714641D01*
X119036626Y-117732037D01*
G37*
G36*
X116536626Y-117732037D02*
G01*
X116706465Y-117783557D01*
X116706467Y-117783558D01*
X116862989Y-117867221D01*
X117000186Y-117979814D01*
X117083448Y-118081271D01*
X117112778Y-118117009D01*
X117196443Y-118273534D01*
X117247963Y-118443373D01*
X117261000Y-118575742D01*
X117261000Y-118914257D01*
X117247963Y-119046626D01*
X117196443Y-119216466D01*
X117112778Y-119372991D01*
X117083448Y-119408729D01*
X117000186Y-119510186D01*
X116905105Y-119588216D01*
X116862991Y-119622778D01*
X116706466Y-119706443D01*
X116536627Y-119757963D01*
X116360000Y-119775359D01*
X116183374Y-119757963D01*
X116013535Y-119706443D01*
X115857010Y-119622778D01*
X115719815Y-119510185D01*
X115607222Y-119372991D01*
X115523557Y-119216466D01*
X115472037Y-119046627D01*
X115459000Y-118914258D01*
X115459000Y-118575743D01*
X115472037Y-118443374D01*
X115523557Y-118273535D01*
X115607222Y-118117010D01*
X115607223Y-118117009D01*
X115719814Y-117979814D01*
X115838365Y-117882523D01*
X115857009Y-117867222D01*
X116013534Y-117783557D01*
X116183373Y-117732037D01*
X116360000Y-117714641D01*
X116536626Y-117732037D01*
G37*
G36*
X114036626Y-117732037D02*
G01*
X114206465Y-117783557D01*
X114206467Y-117783558D01*
X114362989Y-117867221D01*
X114500186Y-117979814D01*
X114583448Y-118081271D01*
X114612778Y-118117009D01*
X114696443Y-118273534D01*
X114747963Y-118443373D01*
X114761000Y-118575742D01*
X114761000Y-118914257D01*
X114747963Y-119046626D01*
X114696443Y-119216466D01*
X114612778Y-119372991D01*
X114583448Y-119408729D01*
X114500186Y-119510186D01*
X114405105Y-119588216D01*
X114362991Y-119622778D01*
X114206466Y-119706443D01*
X114036627Y-119757963D01*
X113860000Y-119775359D01*
X113683374Y-119757963D01*
X113513535Y-119706443D01*
X113357010Y-119622778D01*
X113219815Y-119510185D01*
X113107222Y-119372991D01*
X113023557Y-119216466D01*
X112972037Y-119046627D01*
X112959000Y-118914258D01*
X112959000Y-118575743D01*
X112972037Y-118443374D01*
X113023557Y-118273535D01*
X113107222Y-118117010D01*
X113107223Y-118117009D01*
X113219814Y-117979814D01*
X113338365Y-117882523D01*
X113357009Y-117867222D01*
X113513534Y-117783557D01*
X113683373Y-117732037D01*
X113860000Y-117714641D01*
X114036626Y-117732037D01*
G37*
G36*
X87118698Y-117722987D02*
G01*
X87151724Y-117733005D01*
X87182159Y-117749273D01*
X87208835Y-117771165D01*
X87230727Y-117797841D01*
X87246995Y-117828276D01*
X87257013Y-117861302D01*
X87261000Y-117901784D01*
X87261000Y-119588216D01*
X87257013Y-119628698D01*
X87246995Y-119661724D01*
X87230727Y-119692159D01*
X87208835Y-119718835D01*
X87182159Y-119740727D01*
X87151724Y-119756995D01*
X87118698Y-119767013D01*
X87078216Y-119771000D01*
X85641784Y-119771000D01*
X85601302Y-119767013D01*
X85568276Y-119756995D01*
X85537841Y-119740727D01*
X85511165Y-119718835D01*
X85489273Y-119692159D01*
X85473005Y-119661724D01*
X85462987Y-119628698D01*
X85459000Y-119588216D01*
X85459000Y-117901784D01*
X85462987Y-117861302D01*
X85473005Y-117828276D01*
X85489273Y-117797841D01*
X85511165Y-117771165D01*
X85537841Y-117749273D01*
X85568276Y-117733005D01*
X85601302Y-117722987D01*
X85641784Y-117719000D01*
X87078216Y-117719000D01*
X87118698Y-117722987D01*
G37*
G36*
X98308228Y-111136703D02*
G01*
X98463100Y-111200853D01*
X98602481Y-111293985D01*
X98721015Y-111412519D01*
X98814147Y-111551900D01*
X98878297Y-111706772D01*
X98911000Y-111871184D01*
X98911000Y-112038816D01*
X98878297Y-112203228D01*
X98814147Y-112358100D01*
X98721015Y-112497481D01*
X98602481Y-112616015D01*
X98463100Y-112709147D01*
X98308228Y-112773297D01*
X98143816Y-112806000D01*
X97976184Y-112806000D01*
X97811772Y-112773297D01*
X97656900Y-112709147D01*
X97517519Y-112616015D01*
X97398985Y-112497481D01*
X97305853Y-112358100D01*
X97241703Y-112203228D01*
X97209000Y-112038816D01*
X97209000Y-111871184D01*
X97241703Y-111706772D01*
X97305853Y-111551900D01*
X97398985Y-111412519D01*
X97517519Y-111293985D01*
X97656900Y-111200853D01*
X97811772Y-111136703D01*
X97976184Y-111104000D01*
X98143816Y-111104000D01*
X98308228Y-111136703D01*
G37*
G36*
X90688228Y-111136703D02*
G01*
X90843100Y-111200853D01*
X90982481Y-111293985D01*
X91101015Y-111412519D01*
X91194147Y-111551900D01*
X91258297Y-111706772D01*
X91291000Y-111871184D01*
X91291000Y-112038816D01*
X91258297Y-112203228D01*
X91194147Y-112358100D01*
X91101015Y-112497481D01*
X90982481Y-112616015D01*
X90843100Y-112709147D01*
X90688228Y-112773297D01*
X90523816Y-112806000D01*
X90356184Y-112806000D01*
X90191772Y-112773297D01*
X90036900Y-112709147D01*
X89897519Y-112616015D01*
X89778985Y-112497481D01*
X89685853Y-112358100D01*
X89621703Y-112203228D01*
X89589000Y-112038816D01*
X89589000Y-111871184D01*
X89621703Y-111706772D01*
X89685853Y-111551900D01*
X89778985Y-111412519D01*
X89897519Y-111293985D01*
X90036900Y-111200853D01*
X90191772Y-111136703D01*
X90356184Y-111104000D01*
X90523816Y-111104000D01*
X90688228Y-111136703D01*
G37*
G36*
X82663512Y-110228927D02*
G01*
X82812812Y-110258624D01*
X82976784Y-110326544D01*
X83124354Y-110425147D01*
X83249853Y-110550646D01*
X83348456Y-110698216D01*
X83416376Y-110862188D01*
X83451000Y-111036259D01*
X83451000Y-111213741D01*
X83416376Y-111387812D01*
X83348456Y-111551784D01*
X83249853Y-111699354D01*
X83124354Y-111824853D01*
X82976784Y-111923456D01*
X82812812Y-111991376D01*
X82663512Y-112021073D01*
X82638742Y-112026000D01*
X82461258Y-112026000D01*
X82436488Y-112021073D01*
X82287188Y-111991376D01*
X82123216Y-111923456D01*
X81975646Y-111824853D01*
X81850147Y-111699354D01*
X81751544Y-111551784D01*
X81683624Y-111387812D01*
X81649000Y-111213741D01*
X81649000Y-111036259D01*
X81683624Y-110862188D01*
X81751544Y-110698216D01*
X81850147Y-110550646D01*
X81975646Y-110425147D01*
X82123216Y-110326544D01*
X82287188Y-110258624D01*
X82436488Y-110228927D01*
X82461258Y-110224000D01*
X82638742Y-110224000D01*
X82663512Y-110228927D01*
G37*
G36*
X82663512Y-107688927D02*
G01*
X82812812Y-107718624D01*
X82976784Y-107786544D01*
X83124354Y-107885147D01*
X83249853Y-108010646D01*
X83348456Y-108158216D01*
X83416376Y-108322188D01*
X83451000Y-108496259D01*
X83451000Y-108673741D01*
X83416376Y-108847812D01*
X83348456Y-109011784D01*
X83249853Y-109159354D01*
X83124354Y-109284853D01*
X82976784Y-109383456D01*
X82812812Y-109451376D01*
X82663512Y-109481073D01*
X82638742Y-109486000D01*
X82461258Y-109486000D01*
X82436488Y-109481073D01*
X82287188Y-109451376D01*
X82123216Y-109383456D01*
X81975646Y-109284853D01*
X81850147Y-109159354D01*
X81751544Y-109011784D01*
X81683624Y-108847812D01*
X81649000Y-108673741D01*
X81649000Y-108496259D01*
X81683624Y-108322188D01*
X81751544Y-108158216D01*
X81850147Y-108010646D01*
X81975646Y-107885147D01*
X82123216Y-107786544D01*
X82287188Y-107718624D01*
X82436488Y-107688927D01*
X82461258Y-107684000D01*
X82638742Y-107684000D01*
X82663512Y-107688927D01*
G37*
G36*
X134091642Y-107814781D02*
G01*
X134237414Y-107875162D01*
X134237416Y-107875163D01*
X134368608Y-107962822D01*
X134480178Y-108074392D01*
X134536187Y-108158216D01*
X134567838Y-108205586D01*
X134628219Y-108351358D01*
X134659000Y-108506107D01*
X134659000Y-108663893D01*
X134628219Y-108818642D01*
X134616136Y-108847812D01*
X134567837Y-108964416D01*
X134480178Y-109095608D01*
X134368608Y-109207178D01*
X134237416Y-109294837D01*
X134237415Y-109294838D01*
X134237414Y-109294838D01*
X134091642Y-109355219D01*
X133936893Y-109386000D01*
X133779107Y-109386000D01*
X133624358Y-109355219D01*
X133478586Y-109294838D01*
X133478585Y-109294838D01*
X133478584Y-109294837D01*
X133347392Y-109207178D01*
X133235822Y-109095608D01*
X133148163Y-108964416D01*
X133099864Y-108847812D01*
X133087781Y-108818642D01*
X133057000Y-108663893D01*
X133057000Y-108506107D01*
X133087781Y-108351358D01*
X133148162Y-108205586D01*
X133179813Y-108158216D01*
X133235822Y-108074392D01*
X133347392Y-107962822D01*
X133478584Y-107875163D01*
X133478586Y-107875162D01*
X133624358Y-107814781D01*
X133779107Y-107784000D01*
X133936893Y-107784000D01*
X134091642Y-107814781D01*
G37*
G36*
X98308228Y-107086703D02*
G01*
X98463100Y-107150853D01*
X98602481Y-107243985D01*
X98721015Y-107362519D01*
X98814147Y-107501900D01*
X98878297Y-107656772D01*
X98911000Y-107821184D01*
X98911000Y-107988816D01*
X98878297Y-108153228D01*
X98814147Y-108308100D01*
X98721015Y-108447481D01*
X98602481Y-108566015D01*
X98463100Y-108659147D01*
X98308228Y-108723297D01*
X98143816Y-108756000D01*
X97976184Y-108756000D01*
X97811772Y-108723297D01*
X97656900Y-108659147D01*
X97517519Y-108566015D01*
X97398985Y-108447481D01*
X97305853Y-108308100D01*
X97241703Y-108153228D01*
X97209000Y-107988816D01*
X97209000Y-107821184D01*
X97241703Y-107656772D01*
X97305853Y-107501900D01*
X97398985Y-107362519D01*
X97517519Y-107243985D01*
X97656900Y-107150853D01*
X97811772Y-107086703D01*
X97976184Y-107054000D01*
X98143816Y-107054000D01*
X98308228Y-107086703D01*
G37*
G36*
X90688228Y-107086703D02*
G01*
X90843100Y-107150853D01*
X90982481Y-107243985D01*
X91101015Y-107362519D01*
X91194147Y-107501900D01*
X91258297Y-107656772D01*
X91291000Y-107821184D01*
X91291000Y-107988816D01*
X91258297Y-108153228D01*
X91194147Y-108308100D01*
X91101015Y-108447481D01*
X90982481Y-108566015D01*
X90843100Y-108659147D01*
X90688228Y-108723297D01*
X90523816Y-108756000D01*
X90356184Y-108756000D01*
X90191772Y-108723297D01*
X90036900Y-108659147D01*
X89897519Y-108566015D01*
X89778985Y-108447481D01*
X89685853Y-108308100D01*
X89621703Y-108153228D01*
X89589000Y-107988816D01*
X89589000Y-107821184D01*
X89621703Y-107656772D01*
X89685853Y-107501900D01*
X89778985Y-107362519D01*
X89897519Y-107243985D01*
X90036900Y-107150853D01*
X90191772Y-107086703D01*
X90356184Y-107054000D01*
X90523816Y-107054000D01*
X90688228Y-107086703D01*
G37*
G36*
X82663512Y-105148927D02*
G01*
X82812812Y-105178624D01*
X82976784Y-105246544D01*
X83124354Y-105345147D01*
X83249853Y-105470646D01*
X83348456Y-105618216D01*
X83416376Y-105782188D01*
X83451000Y-105956259D01*
X83451000Y-106133741D01*
X83416376Y-106307812D01*
X83348456Y-106471784D01*
X83249853Y-106619354D01*
X83124354Y-106744853D01*
X82976784Y-106843456D01*
X82812812Y-106911376D01*
X82663512Y-106941073D01*
X82638742Y-106946000D01*
X82461258Y-106946000D01*
X82436488Y-106941073D01*
X82287188Y-106911376D01*
X82123216Y-106843456D01*
X81975646Y-106744853D01*
X81850147Y-106619354D01*
X81751544Y-106471784D01*
X81683624Y-106307812D01*
X81649000Y-106133741D01*
X81649000Y-105956259D01*
X81683624Y-105782188D01*
X81751544Y-105618216D01*
X81850147Y-105470646D01*
X81975646Y-105345147D01*
X82123216Y-105246544D01*
X82287188Y-105178624D01*
X82436488Y-105148927D01*
X82461258Y-105144000D01*
X82638742Y-105144000D01*
X82663512Y-105148927D01*
G37*
G36*
X106278642Y-104439781D02*
G01*
X106424414Y-104500162D01*
X106424416Y-104500163D01*
X106555608Y-104587822D01*
X106667178Y-104699392D01*
X106754837Y-104830584D01*
X106754838Y-104830586D01*
X106815219Y-104976358D01*
X106846000Y-105131107D01*
X106846000Y-105288893D01*
X106815219Y-105443642D01*
X106804033Y-105470647D01*
X106754837Y-105589416D01*
X106667178Y-105720608D01*
X106555608Y-105832178D01*
X106424416Y-105919837D01*
X106424415Y-105919838D01*
X106424414Y-105919838D01*
X106278642Y-105980219D01*
X106123893Y-106011000D01*
X105966107Y-106011000D01*
X105811358Y-105980219D01*
X105665586Y-105919838D01*
X105665585Y-105919838D01*
X105665584Y-105919837D01*
X105534392Y-105832178D01*
X105422822Y-105720608D01*
X105335163Y-105589416D01*
X105285967Y-105470647D01*
X105274781Y-105443642D01*
X105244000Y-105288893D01*
X105244000Y-105131107D01*
X105274781Y-104976358D01*
X105335162Y-104830586D01*
X105335163Y-104830584D01*
X105422822Y-104699392D01*
X105534392Y-104587822D01*
X105665584Y-104500163D01*
X105665586Y-104500162D01*
X105811358Y-104439781D01*
X105966107Y-104409000D01*
X106123893Y-104409000D01*
X106278642Y-104439781D01*
G37*
G36*
X134091642Y-102934781D02*
G01*
X134237414Y-102995162D01*
X134237416Y-102995163D01*
X134368608Y-103082822D01*
X134480178Y-103194392D01*
X134567837Y-103325584D01*
X134567838Y-103325586D01*
X134628219Y-103471358D01*
X134659000Y-103626107D01*
X134659000Y-103783893D01*
X134628219Y-103938642D01*
X134567838Y-104084414D01*
X134567837Y-104084416D01*
X134480178Y-104215608D01*
X134368608Y-104327178D01*
X134237416Y-104414837D01*
X134237415Y-104414838D01*
X134237414Y-104414838D01*
X134091642Y-104475219D01*
X133936893Y-104506000D01*
X133779107Y-104506000D01*
X133624358Y-104475219D01*
X133478586Y-104414838D01*
X133478585Y-104414838D01*
X133478584Y-104414837D01*
X133347392Y-104327178D01*
X133235822Y-104215608D01*
X133148163Y-104084416D01*
X133148162Y-104084414D01*
X133087781Y-103938642D01*
X133057000Y-103783893D01*
X133057000Y-103626107D01*
X133087781Y-103471358D01*
X133148162Y-103325586D01*
X133148163Y-103325584D01*
X133235822Y-103194392D01*
X133347392Y-103082822D01*
X133478584Y-102995163D01*
X133478586Y-102995162D01*
X133624358Y-102934781D01*
X133779107Y-102904000D01*
X133936893Y-102904000D01*
X134091642Y-102934781D01*
G37*
G36*
X83451000Y-104406000D02*
G01*
X81649000Y-104406000D01*
X81649000Y-102604000D01*
X83451000Y-102604000D01*
X83451000Y-104406000D01*
G37*
G36*
X106278642Y-99559781D02*
G01*
X106381728Y-99602481D01*
X106424416Y-99620163D01*
X106555608Y-99707822D01*
X106667178Y-99819392D01*
X106728388Y-99911000D01*
X106754838Y-99950586D01*
X106815219Y-100096358D01*
X106846000Y-100251107D01*
X106846000Y-100408893D01*
X106815219Y-100563642D01*
X106754838Y-100709414D01*
X106754837Y-100709416D01*
X106667178Y-100840608D01*
X106555608Y-100952178D01*
X106424416Y-101039837D01*
X106424415Y-101039838D01*
X106424414Y-101039838D01*
X106278642Y-101100219D01*
X106123893Y-101131000D01*
X105966107Y-101131000D01*
X105811358Y-101100219D01*
X105665586Y-101039838D01*
X105665585Y-101039838D01*
X105665584Y-101039837D01*
X105534392Y-100952178D01*
X105422822Y-100840608D01*
X105335163Y-100709416D01*
X105335162Y-100709414D01*
X105274781Y-100563642D01*
X105244000Y-100408893D01*
X105244000Y-100251107D01*
X105274781Y-100096358D01*
X105335162Y-99950586D01*
X105361612Y-99911000D01*
X105422822Y-99819392D01*
X105534392Y-99707822D01*
X105665584Y-99620163D01*
X105708272Y-99602481D01*
X105811358Y-99559781D01*
X105966107Y-99529000D01*
X106123893Y-99529000D01*
X106278642Y-99559781D01*
G37*
G36*
X92323228Y-98241703D02*
G01*
X92478100Y-98305853D01*
X92617481Y-98398985D01*
X92736015Y-98517519D01*
X92829147Y-98656900D01*
X92893297Y-98811772D01*
X92926000Y-98976184D01*
X92926000Y-99143816D01*
X92893297Y-99308228D01*
X92829147Y-99463100D01*
X92736015Y-99602481D01*
X92617481Y-99721015D01*
X92478100Y-99814147D01*
X92323228Y-99878297D01*
X92158816Y-99911000D01*
X91991184Y-99911000D01*
X91826772Y-99878297D01*
X91671900Y-99814147D01*
X91532519Y-99721015D01*
X91413985Y-99602481D01*
X91320853Y-99463100D01*
X91256703Y-99308228D01*
X91224000Y-99143816D01*
X91224000Y-98976184D01*
X91256703Y-98811772D01*
X91320853Y-98656900D01*
X91413985Y-98517519D01*
X91532519Y-98398985D01*
X91671900Y-98305853D01*
X91826772Y-98241703D01*
X91991184Y-98209000D01*
X92158816Y-98209000D01*
X92323228Y-98241703D01*
G37*
G36*
X82663512Y-92448927D02*
G01*
X82812812Y-92478624D01*
X82976784Y-92546544D01*
X83124354Y-92645147D01*
X83249853Y-92770646D01*
X83348456Y-92918216D01*
X83416376Y-93082188D01*
X83451000Y-93256259D01*
X83451000Y-93433741D01*
X83416376Y-93607812D01*
X83348456Y-93771784D01*
X83249853Y-93919354D01*
X83124354Y-94044853D01*
X82976784Y-94143456D01*
X82812812Y-94211376D01*
X82663512Y-94241073D01*
X82638742Y-94246000D01*
X82461258Y-94246000D01*
X82436488Y-94241073D01*
X82287188Y-94211376D01*
X82123216Y-94143456D01*
X81975646Y-94044853D01*
X81850147Y-93919354D01*
X81751544Y-93771784D01*
X81683624Y-93607812D01*
X81649000Y-93433741D01*
X81649000Y-93256259D01*
X81683624Y-93082188D01*
X81751544Y-92918216D01*
X81850147Y-92770646D01*
X81975646Y-92645147D01*
X82123216Y-92546544D01*
X82287188Y-92478624D01*
X82436488Y-92448927D01*
X82461258Y-92444000D01*
X82638742Y-92444000D01*
X82663512Y-92448927D01*
G37*
G36*
X92323228Y-90621703D02*
G01*
X92478100Y-90685853D01*
X92617481Y-90778985D01*
X92736015Y-90897519D01*
X92829147Y-91036900D01*
X92893297Y-91191772D01*
X92926000Y-91356184D01*
X92926000Y-91523816D01*
X92893297Y-91688228D01*
X92829147Y-91843100D01*
X92736015Y-91982481D01*
X92617481Y-92101015D01*
X92478100Y-92194147D01*
X92323228Y-92258297D01*
X92158816Y-92291000D01*
X91991184Y-92291000D01*
X91826772Y-92258297D01*
X91671900Y-92194147D01*
X91532519Y-92101015D01*
X91413985Y-91982481D01*
X91320853Y-91843100D01*
X91256703Y-91688228D01*
X91224000Y-91523816D01*
X91224000Y-91356184D01*
X91256703Y-91191772D01*
X91320853Y-91036900D01*
X91413985Y-90897519D01*
X91532519Y-90778985D01*
X91671900Y-90685853D01*
X91826772Y-90621703D01*
X91991184Y-90589000D01*
X92158816Y-90589000D01*
X92323228Y-90621703D01*
G37*
G36*
X83451000Y-91706000D02*
G01*
X81649000Y-91706000D01*
X81649000Y-89904000D01*
X83451000Y-89904000D01*
X83451000Y-91706000D01*
G37*
G36*
X126478512Y-78478927D02*
G01*
X126627812Y-78508624D01*
X126791784Y-78576544D01*
X126939354Y-78675147D01*
X127064853Y-78800646D01*
X127163456Y-78948216D01*
X127231376Y-79112188D01*
X127266000Y-79286259D01*
X127266000Y-79463741D01*
X127231376Y-79637812D01*
X127163456Y-79801784D01*
X127064853Y-79949354D01*
X126939354Y-80074853D01*
X126791784Y-80173456D01*
X126627812Y-80241376D01*
X126478512Y-80271073D01*
X126453742Y-80276000D01*
X126276258Y-80276000D01*
X126251488Y-80271073D01*
X126102188Y-80241376D01*
X125938216Y-80173456D01*
X125790646Y-80074853D01*
X125665147Y-79949354D01*
X125566544Y-79801784D01*
X125498624Y-79637812D01*
X125464000Y-79463741D01*
X125464000Y-79286259D01*
X125498624Y-79112188D01*
X125566544Y-78948216D01*
X125665147Y-78800646D01*
X125790646Y-78675147D01*
X125938216Y-78576544D01*
X126102188Y-78508624D01*
X126251488Y-78478927D01*
X126276258Y-78474000D01*
X126453742Y-78474000D01*
X126478512Y-78478927D01*
G37*
G36*
X123938512Y-78478927D02*
G01*
X124087812Y-78508624D01*
X124251784Y-78576544D01*
X124399354Y-78675147D01*
X124524853Y-78800646D01*
X124623456Y-78948216D01*
X124691376Y-79112188D01*
X124726000Y-79286259D01*
X124726000Y-79463741D01*
X124691376Y-79637812D01*
X124623456Y-79801784D01*
X124524853Y-79949354D01*
X124399354Y-80074853D01*
X124251784Y-80173456D01*
X124087812Y-80241376D01*
X123938512Y-80271073D01*
X123913742Y-80276000D01*
X123736258Y-80276000D01*
X123711488Y-80271073D01*
X123562188Y-80241376D01*
X123398216Y-80173456D01*
X123250646Y-80074853D01*
X123125147Y-79949354D01*
X123026544Y-79801784D01*
X122958624Y-79637812D01*
X122924000Y-79463741D01*
X122924000Y-79286259D01*
X122958624Y-79112188D01*
X123026544Y-78948216D01*
X123125147Y-78800646D01*
X123250646Y-78675147D01*
X123398216Y-78576544D01*
X123562188Y-78508624D01*
X123711488Y-78478927D01*
X123736258Y-78474000D01*
X123913742Y-78474000D01*
X123938512Y-78478927D01*
G37*
G36*
X113778512Y-78478927D02*
G01*
X113927812Y-78508624D01*
X114091784Y-78576544D01*
X114239354Y-78675147D01*
X114364853Y-78800646D01*
X114463456Y-78948216D01*
X114531376Y-79112188D01*
X114566000Y-79286259D01*
X114566000Y-79463741D01*
X114531376Y-79637812D01*
X114463456Y-79801784D01*
X114364853Y-79949354D01*
X114239354Y-80074853D01*
X114091784Y-80173456D01*
X113927812Y-80241376D01*
X113778512Y-80271073D01*
X113753742Y-80276000D01*
X113576258Y-80276000D01*
X113551488Y-80271073D01*
X113402188Y-80241376D01*
X113238216Y-80173456D01*
X113090646Y-80074853D01*
X112965147Y-79949354D01*
X112866544Y-79801784D01*
X112798624Y-79637812D01*
X112764000Y-79463741D01*
X112764000Y-79286259D01*
X112798624Y-79112188D01*
X112866544Y-78948216D01*
X112965147Y-78800646D01*
X113090646Y-78675147D01*
X113238216Y-78576544D01*
X113402188Y-78508624D01*
X113551488Y-78478927D01*
X113576258Y-78474000D01*
X113753742Y-78474000D01*
X113778512Y-78478927D01*
G37*
G36*
X116318512Y-78478927D02*
G01*
X116467812Y-78508624D01*
X116631784Y-78576544D01*
X116779354Y-78675147D01*
X116904853Y-78800646D01*
X117003456Y-78948216D01*
X117071376Y-79112188D01*
X117106000Y-79286259D01*
X117106000Y-79463741D01*
X117071376Y-79637812D01*
X117003456Y-79801784D01*
X116904853Y-79949354D01*
X116779354Y-80074853D01*
X116631784Y-80173456D01*
X116467812Y-80241376D01*
X116318512Y-80271073D01*
X116293742Y-80276000D01*
X116116258Y-80276000D01*
X116091488Y-80271073D01*
X115942188Y-80241376D01*
X115778216Y-80173456D01*
X115630646Y-80074853D01*
X115505147Y-79949354D01*
X115406544Y-79801784D01*
X115338624Y-79637812D01*
X115304000Y-79463741D01*
X115304000Y-79286259D01*
X115338624Y-79112188D01*
X115406544Y-78948216D01*
X115505147Y-78800646D01*
X115630646Y-78675147D01*
X115778216Y-78576544D01*
X115942188Y-78508624D01*
X116091488Y-78478927D01*
X116116258Y-78474000D01*
X116293742Y-78474000D01*
X116318512Y-78478927D01*
G37*
G36*
X217664512Y-77970927D02*
G01*
X217813812Y-78000624D01*
X217977784Y-78068544D01*
X218125354Y-78167147D01*
X218250853Y-78292646D01*
X218349456Y-78440216D01*
X218417376Y-78604188D01*
X218452000Y-78778259D01*
X218452000Y-78955741D01*
X218417376Y-79129812D01*
X218349456Y-79293784D01*
X218250853Y-79441354D01*
X218125354Y-79566853D01*
X217977784Y-79665456D01*
X217813812Y-79733376D01*
X217664512Y-79763073D01*
X217639742Y-79768000D01*
X217462258Y-79768000D01*
X217437488Y-79763073D01*
X217288188Y-79733376D01*
X217124216Y-79665456D01*
X216976646Y-79566853D01*
X216851147Y-79441354D01*
X216752544Y-79293784D01*
X216684624Y-79129812D01*
X216650000Y-78955741D01*
X216650000Y-78778259D01*
X216684624Y-78604188D01*
X216752544Y-78440216D01*
X216851147Y-78292646D01*
X216976646Y-78167147D01*
X217124216Y-78068544D01*
X217288188Y-78000624D01*
X217437488Y-77970927D01*
X217462258Y-77966000D01*
X217639742Y-77966000D01*
X217664512Y-77970927D01*
G37*
G36*
X86626000Y-77863000D02*
G01*
X84824000Y-77863000D01*
X84824000Y-76061000D01*
X86626000Y-76061000D01*
X86626000Y-77863000D01*
G37*
G36*
X83298512Y-76065927D02*
G01*
X83447812Y-76095624D01*
X83611784Y-76163544D01*
X83759354Y-76262147D01*
X83884853Y-76387646D01*
X83983456Y-76535216D01*
X84051376Y-76699188D01*
X84086000Y-76873259D01*
X84086000Y-77050741D01*
X84051376Y-77224812D01*
X83983456Y-77388784D01*
X83884853Y-77536354D01*
X83759354Y-77661853D01*
X83611784Y-77760456D01*
X83447812Y-77828376D01*
X83298512Y-77858073D01*
X83273742Y-77863000D01*
X83096258Y-77863000D01*
X83071488Y-77858073D01*
X82922188Y-77828376D01*
X82758216Y-77760456D01*
X82610646Y-77661853D01*
X82485147Y-77536354D01*
X82386544Y-77388784D01*
X82318624Y-77224812D01*
X82284000Y-77050741D01*
X82284000Y-76873259D01*
X82318624Y-76699188D01*
X82386544Y-76535216D01*
X82485147Y-76387646D01*
X82610646Y-76262147D01*
X82758216Y-76163544D01*
X82922188Y-76095624D01*
X83071488Y-76065927D01*
X83096258Y-76061000D01*
X83273742Y-76061000D01*
X83298512Y-76065927D01*
G37*
G36*
X113778512Y-75938927D02*
G01*
X113927812Y-75968624D01*
X114091784Y-76036544D01*
X114239354Y-76135147D01*
X114364853Y-76260646D01*
X114463456Y-76408216D01*
X114531376Y-76572188D01*
X114566000Y-76746259D01*
X114566000Y-76923741D01*
X114531376Y-77097812D01*
X114463456Y-77261784D01*
X114364853Y-77409354D01*
X114239354Y-77534853D01*
X114091784Y-77633456D01*
X113927812Y-77701376D01*
X113778512Y-77731073D01*
X113753742Y-77736000D01*
X113576258Y-77736000D01*
X113551488Y-77731073D01*
X113402188Y-77701376D01*
X113238216Y-77633456D01*
X113090646Y-77534853D01*
X112965147Y-77409354D01*
X112866544Y-77261784D01*
X112798624Y-77097812D01*
X112764000Y-76923741D01*
X112764000Y-76746259D01*
X112798624Y-76572188D01*
X112866544Y-76408216D01*
X112965147Y-76260646D01*
X113090646Y-76135147D01*
X113238216Y-76036544D01*
X113402188Y-75968624D01*
X113551488Y-75938927D01*
X113576258Y-75934000D01*
X113753742Y-75934000D01*
X113778512Y-75938927D01*
G37*
G36*
X116318512Y-75938927D02*
G01*
X116467812Y-75968624D01*
X116631784Y-76036544D01*
X116779354Y-76135147D01*
X116904853Y-76260646D01*
X117003456Y-76408216D01*
X117071376Y-76572188D01*
X117106000Y-76746259D01*
X117106000Y-76923741D01*
X117071376Y-77097812D01*
X117003456Y-77261784D01*
X116904853Y-77409354D01*
X116779354Y-77534853D01*
X116631784Y-77633456D01*
X116467812Y-77701376D01*
X116318512Y-77731073D01*
X116293742Y-77736000D01*
X116116258Y-77736000D01*
X116091488Y-77731073D01*
X115942188Y-77701376D01*
X115778216Y-77633456D01*
X115630646Y-77534853D01*
X115505147Y-77409354D01*
X115406544Y-77261784D01*
X115338624Y-77097812D01*
X115304000Y-76923741D01*
X115304000Y-76746259D01*
X115338624Y-76572188D01*
X115406544Y-76408216D01*
X115505147Y-76260646D01*
X115630646Y-76135147D01*
X115778216Y-76036544D01*
X115942188Y-75968624D01*
X116091488Y-75938927D01*
X116116258Y-75934000D01*
X116293742Y-75934000D01*
X116318512Y-75938927D01*
G37*
G36*
X106793512Y-75938927D02*
G01*
X106942812Y-75968624D01*
X107106784Y-76036544D01*
X107254354Y-76135147D01*
X107379853Y-76260646D01*
X107478456Y-76408216D01*
X107546376Y-76572188D01*
X107581000Y-76746259D01*
X107581000Y-76923741D01*
X107546376Y-77097812D01*
X107478456Y-77261784D01*
X107379853Y-77409354D01*
X107254354Y-77534853D01*
X107106784Y-77633456D01*
X106942812Y-77701376D01*
X106793512Y-77731073D01*
X106768742Y-77736000D01*
X106591258Y-77736000D01*
X106566488Y-77731073D01*
X106417188Y-77701376D01*
X106253216Y-77633456D01*
X106105646Y-77534853D01*
X105980147Y-77409354D01*
X105881544Y-77261784D01*
X105813624Y-77097812D01*
X105779000Y-76923741D01*
X105779000Y-76746259D01*
X105813624Y-76572188D01*
X105881544Y-76408216D01*
X105980147Y-76260646D01*
X106105646Y-76135147D01*
X106253216Y-76036544D01*
X106417188Y-75968624D01*
X106566488Y-75938927D01*
X106591258Y-75934000D01*
X106768742Y-75934000D01*
X106793512Y-75938927D01*
G37*
G36*
X126478512Y-75938927D02*
G01*
X126627812Y-75968624D01*
X126791784Y-76036544D01*
X126939354Y-76135147D01*
X127064853Y-76260646D01*
X127163456Y-76408216D01*
X127231376Y-76572188D01*
X127266000Y-76746259D01*
X127266000Y-76923741D01*
X127231376Y-77097812D01*
X127163456Y-77261784D01*
X127064853Y-77409354D01*
X126939354Y-77534853D01*
X126791784Y-77633456D01*
X126627812Y-77701376D01*
X126478512Y-77731073D01*
X126453742Y-77736000D01*
X126276258Y-77736000D01*
X126251488Y-77731073D01*
X126102188Y-77701376D01*
X125938216Y-77633456D01*
X125790646Y-77534853D01*
X125665147Y-77409354D01*
X125566544Y-77261784D01*
X125498624Y-77097812D01*
X125464000Y-76923741D01*
X125464000Y-76746259D01*
X125498624Y-76572188D01*
X125566544Y-76408216D01*
X125665147Y-76260646D01*
X125790646Y-76135147D01*
X125938216Y-76036544D01*
X126102188Y-75968624D01*
X126251488Y-75938927D01*
X126276258Y-75934000D01*
X126453742Y-75934000D01*
X126478512Y-75938927D01*
G37*
G36*
X104253512Y-75938927D02*
G01*
X104402812Y-75968624D01*
X104566784Y-76036544D01*
X104714354Y-76135147D01*
X104839853Y-76260646D01*
X104938456Y-76408216D01*
X105006376Y-76572188D01*
X105041000Y-76746259D01*
X105041000Y-76923741D01*
X105006376Y-77097812D01*
X104938456Y-77261784D01*
X104839853Y-77409354D01*
X104714354Y-77534853D01*
X104566784Y-77633456D01*
X104402812Y-77701376D01*
X104253512Y-77731073D01*
X104228742Y-77736000D01*
X104051258Y-77736000D01*
X104026488Y-77731073D01*
X103877188Y-77701376D01*
X103713216Y-77633456D01*
X103565646Y-77534853D01*
X103440147Y-77409354D01*
X103341544Y-77261784D01*
X103273624Y-77097812D01*
X103239000Y-76923741D01*
X103239000Y-76746259D01*
X103273624Y-76572188D01*
X103341544Y-76408216D01*
X103440147Y-76260646D01*
X103565646Y-76135147D01*
X103713216Y-76036544D01*
X103877188Y-75968624D01*
X104026488Y-75938927D01*
X104051258Y-75934000D01*
X104228742Y-75934000D01*
X104253512Y-75938927D01*
G37*
G36*
X101713512Y-75938927D02*
G01*
X101862812Y-75968624D01*
X102026784Y-76036544D01*
X102174354Y-76135147D01*
X102299853Y-76260646D01*
X102398456Y-76408216D01*
X102466376Y-76572188D01*
X102501000Y-76746259D01*
X102501000Y-76923741D01*
X102466376Y-77097812D01*
X102398456Y-77261784D01*
X102299853Y-77409354D01*
X102174354Y-77534853D01*
X102026784Y-77633456D01*
X101862812Y-77701376D01*
X101713512Y-77731073D01*
X101688742Y-77736000D01*
X101511258Y-77736000D01*
X101486488Y-77731073D01*
X101337188Y-77701376D01*
X101173216Y-77633456D01*
X101025646Y-77534853D01*
X100900147Y-77409354D01*
X100801544Y-77261784D01*
X100733624Y-77097812D01*
X100699000Y-76923741D01*
X100699000Y-76746259D01*
X100733624Y-76572188D01*
X100801544Y-76408216D01*
X100900147Y-76260646D01*
X101025646Y-76135147D01*
X101173216Y-76036544D01*
X101337188Y-75968624D01*
X101486488Y-75938927D01*
X101511258Y-75934000D01*
X101688742Y-75934000D01*
X101713512Y-75938927D01*
G37*
G36*
X99961000Y-77736000D02*
G01*
X98159000Y-77736000D01*
X98159000Y-75934000D01*
X99961000Y-75934000D01*
X99961000Y-77736000D01*
G37*
G36*
X123938512Y-75938927D02*
G01*
X124087812Y-75968624D01*
X124251784Y-76036544D01*
X124399354Y-76135147D01*
X124524853Y-76260646D01*
X124623456Y-76408216D01*
X124691376Y-76572188D01*
X124726000Y-76746259D01*
X124726000Y-76923741D01*
X124691376Y-77097812D01*
X124623456Y-77261784D01*
X124524853Y-77409354D01*
X124399354Y-77534853D01*
X124251784Y-77633456D01*
X124087812Y-77701376D01*
X123938512Y-77731073D01*
X123913742Y-77736000D01*
X123736258Y-77736000D01*
X123711488Y-77731073D01*
X123562188Y-77701376D01*
X123398216Y-77633456D01*
X123250646Y-77534853D01*
X123125147Y-77409354D01*
X123026544Y-77261784D01*
X122958624Y-77097812D01*
X122924000Y-76923741D01*
X122924000Y-76746259D01*
X122958624Y-76572188D01*
X123026544Y-76408216D01*
X123125147Y-76260646D01*
X123250646Y-76135147D01*
X123398216Y-76036544D01*
X123562188Y-75968624D01*
X123711488Y-75938927D01*
X123736258Y-75934000D01*
X123913742Y-75934000D01*
X123938512Y-75938927D01*
G37*
G36*
X218452000Y-77228000D02*
G01*
X216650000Y-77228000D01*
X216650000Y-75426000D01*
X218452000Y-75426000D01*
X218452000Y-77228000D01*
G37*
G36*
X85838512Y-73525927D02*
G01*
X85987812Y-73555624D01*
X86151784Y-73623544D01*
X86299354Y-73722147D01*
X86424853Y-73847646D01*
X86523456Y-73995216D01*
X86591376Y-74159188D01*
X86626000Y-74333259D01*
X86626000Y-74510741D01*
X86591376Y-74684812D01*
X86523456Y-74848784D01*
X86424853Y-74996354D01*
X86299354Y-75121853D01*
X86151784Y-75220456D01*
X85987812Y-75288376D01*
X85838512Y-75318073D01*
X85813742Y-75323000D01*
X85636258Y-75323000D01*
X85611488Y-75318073D01*
X85462188Y-75288376D01*
X85298216Y-75220456D01*
X85150646Y-75121853D01*
X85025147Y-74996354D01*
X84926544Y-74848784D01*
X84858624Y-74684812D01*
X84824000Y-74510741D01*
X84824000Y-74333259D01*
X84858624Y-74159188D01*
X84926544Y-73995216D01*
X85025147Y-73847646D01*
X85150646Y-73722147D01*
X85298216Y-73623544D01*
X85462188Y-73555624D01*
X85611488Y-73525927D01*
X85636258Y-73521000D01*
X85813742Y-73521000D01*
X85838512Y-73525927D01*
G37*
G36*
X83298512Y-73525927D02*
G01*
X83447812Y-73555624D01*
X83611784Y-73623544D01*
X83759354Y-73722147D01*
X83884853Y-73847646D01*
X83983456Y-73995216D01*
X84051376Y-74159188D01*
X84086000Y-74333259D01*
X84086000Y-74510741D01*
X84051376Y-74684812D01*
X83983456Y-74848784D01*
X83884853Y-74996354D01*
X83759354Y-75121853D01*
X83611784Y-75220456D01*
X83447812Y-75288376D01*
X83298512Y-75318073D01*
X83273742Y-75323000D01*
X83096258Y-75323000D01*
X83071488Y-75318073D01*
X82922188Y-75288376D01*
X82758216Y-75220456D01*
X82610646Y-75121853D01*
X82485147Y-74996354D01*
X82386544Y-74848784D01*
X82318624Y-74684812D01*
X82284000Y-74510741D01*
X82284000Y-74333259D01*
X82318624Y-74159188D01*
X82386544Y-73995216D01*
X82485147Y-73847646D01*
X82610646Y-73722147D01*
X82758216Y-73623544D01*
X82922188Y-73555624D01*
X83071488Y-73525927D01*
X83096258Y-73521000D01*
X83273742Y-73521000D01*
X83298512Y-73525927D01*
G37*
G36*
X116318512Y-73398927D02*
G01*
X116467812Y-73428624D01*
X116631784Y-73496544D01*
X116779354Y-73595147D01*
X116904853Y-73720646D01*
X117003456Y-73868216D01*
X117071376Y-74032188D01*
X117106000Y-74206259D01*
X117106000Y-74383741D01*
X117071376Y-74557812D01*
X117003456Y-74721784D01*
X116904853Y-74869354D01*
X116779354Y-74994853D01*
X116631784Y-75093456D01*
X116467812Y-75161376D01*
X116318512Y-75191073D01*
X116293742Y-75196000D01*
X116116258Y-75196000D01*
X116091488Y-75191073D01*
X115942188Y-75161376D01*
X115778216Y-75093456D01*
X115630646Y-74994853D01*
X115505147Y-74869354D01*
X115406544Y-74721784D01*
X115338624Y-74557812D01*
X115304000Y-74383741D01*
X115304000Y-74206259D01*
X115338624Y-74032188D01*
X115406544Y-73868216D01*
X115505147Y-73720646D01*
X115630646Y-73595147D01*
X115778216Y-73496544D01*
X115942188Y-73428624D01*
X116091488Y-73398927D01*
X116116258Y-73394000D01*
X116293742Y-73394000D01*
X116318512Y-73398927D01*
G37*
G36*
X114566000Y-75196000D02*
G01*
X112764000Y-75196000D01*
X112764000Y-73394000D01*
X114566000Y-73394000D01*
X114566000Y-75196000D01*
G37*
G36*
X126478512Y-73398927D02*
G01*
X126627812Y-73428624D01*
X126791784Y-73496544D01*
X126939354Y-73595147D01*
X127064853Y-73720646D01*
X127163456Y-73868216D01*
X127231376Y-74032188D01*
X127266000Y-74206259D01*
X127266000Y-74383741D01*
X127231376Y-74557812D01*
X127163456Y-74721784D01*
X127064853Y-74869354D01*
X126939354Y-74994853D01*
X126791784Y-75093456D01*
X126627812Y-75161376D01*
X126478512Y-75191073D01*
X126453742Y-75196000D01*
X126276258Y-75196000D01*
X126251488Y-75191073D01*
X126102188Y-75161376D01*
X125938216Y-75093456D01*
X125790646Y-74994853D01*
X125665147Y-74869354D01*
X125566544Y-74721784D01*
X125498624Y-74557812D01*
X125464000Y-74383741D01*
X125464000Y-74206259D01*
X125498624Y-74032188D01*
X125566544Y-73868216D01*
X125665147Y-73720646D01*
X125790646Y-73595147D01*
X125938216Y-73496544D01*
X126102188Y-73428624D01*
X126251488Y-73398927D01*
X126276258Y-73394000D01*
X126453742Y-73394000D01*
X126478512Y-73398927D01*
G37*
G36*
X124726000Y-75196000D02*
G01*
X122924000Y-75196000D01*
X122924000Y-73394000D01*
X124726000Y-73394000D01*
X124726000Y-75196000D01*
G37*
G36*
X133463512Y-64508927D02*
G01*
X133612812Y-64538624D01*
X133776784Y-64606544D01*
X133924354Y-64705147D01*
X134049853Y-64830646D01*
X134148456Y-64978216D01*
X134216376Y-65142188D01*
X134251000Y-65316259D01*
X134251000Y-65493741D01*
X134216376Y-65667812D01*
X134148456Y-65831784D01*
X134049853Y-65979354D01*
X133924354Y-66104853D01*
X133776784Y-66203456D01*
X133612812Y-66271376D01*
X133463512Y-66301073D01*
X133438742Y-66306000D01*
X133261258Y-66306000D01*
X133236488Y-66301073D01*
X133087188Y-66271376D01*
X132923216Y-66203456D01*
X132775646Y-66104853D01*
X132650147Y-65979354D01*
X132551544Y-65831784D01*
X132483624Y-65667812D01*
X132449000Y-65493741D01*
X132449000Y-65316259D01*
X132483624Y-65142188D01*
X132551544Y-64978216D01*
X132650147Y-64830646D01*
X132775646Y-64705147D01*
X132923216Y-64606544D01*
X133087188Y-64538624D01*
X133236488Y-64508927D01*
X133261258Y-64504000D01*
X133438742Y-64504000D01*
X133463512Y-64508927D01*
G37*
G36*
X138543512Y-64508927D02*
G01*
X138692812Y-64538624D01*
X138856784Y-64606544D01*
X139004354Y-64705147D01*
X139129853Y-64830646D01*
X139228456Y-64978216D01*
X139296376Y-65142188D01*
X139331000Y-65316259D01*
X139331000Y-65493741D01*
X139296376Y-65667812D01*
X139228456Y-65831784D01*
X139129853Y-65979354D01*
X139004354Y-66104853D01*
X138856784Y-66203456D01*
X138692812Y-66271376D01*
X138543512Y-66301073D01*
X138518742Y-66306000D01*
X138341258Y-66306000D01*
X138316488Y-66301073D01*
X138167188Y-66271376D01*
X138003216Y-66203456D01*
X137855646Y-66104853D01*
X137730147Y-65979354D01*
X137631544Y-65831784D01*
X137563624Y-65667812D01*
X137529000Y-65493741D01*
X137529000Y-65316259D01*
X137563624Y-65142188D01*
X137631544Y-64978216D01*
X137730147Y-64830646D01*
X137855646Y-64705147D01*
X138003216Y-64606544D01*
X138167188Y-64538624D01*
X138316488Y-64508927D01*
X138341258Y-64504000D01*
X138518742Y-64504000D01*
X138543512Y-64508927D01*
G37*
G36*
X106793512Y-64508927D02*
G01*
X106942812Y-64538624D01*
X107106784Y-64606544D01*
X107254354Y-64705147D01*
X107379853Y-64830646D01*
X107478456Y-64978216D01*
X107546376Y-65142188D01*
X107581000Y-65316259D01*
X107581000Y-65493741D01*
X107546376Y-65667812D01*
X107478456Y-65831784D01*
X107379853Y-65979354D01*
X107254354Y-66104853D01*
X107106784Y-66203456D01*
X106942812Y-66271376D01*
X106793512Y-66301073D01*
X106768742Y-66306000D01*
X106591258Y-66306000D01*
X106566488Y-66301073D01*
X106417188Y-66271376D01*
X106253216Y-66203456D01*
X106105646Y-66104853D01*
X105980147Y-65979354D01*
X105881544Y-65831784D01*
X105813624Y-65667812D01*
X105779000Y-65493741D01*
X105779000Y-65316259D01*
X105813624Y-65142188D01*
X105881544Y-64978216D01*
X105980147Y-64830646D01*
X106105646Y-64705147D01*
X106253216Y-64606544D01*
X106417188Y-64538624D01*
X106566488Y-64508927D01*
X106591258Y-64504000D01*
X106768742Y-64504000D01*
X106793512Y-64508927D01*
G37*
G36*
X104253512Y-64508927D02*
G01*
X104402812Y-64538624D01*
X104566784Y-64606544D01*
X104714354Y-64705147D01*
X104839853Y-64830646D01*
X104938456Y-64978216D01*
X105006376Y-65142188D01*
X105041000Y-65316259D01*
X105041000Y-65493741D01*
X105006376Y-65667812D01*
X104938456Y-65831784D01*
X104839853Y-65979354D01*
X104714354Y-66104853D01*
X104566784Y-66203456D01*
X104402812Y-66271376D01*
X104253512Y-66301073D01*
X104228742Y-66306000D01*
X104051258Y-66306000D01*
X104026488Y-66301073D01*
X103877188Y-66271376D01*
X103713216Y-66203456D01*
X103565646Y-66104853D01*
X103440147Y-65979354D01*
X103341544Y-65831784D01*
X103273624Y-65667812D01*
X103239000Y-65493741D01*
X103239000Y-65316259D01*
X103273624Y-65142188D01*
X103341544Y-64978216D01*
X103440147Y-64830646D01*
X103565646Y-64705147D01*
X103713216Y-64606544D01*
X103877188Y-64538624D01*
X104026488Y-64508927D01*
X104051258Y-64504000D01*
X104228742Y-64504000D01*
X104253512Y-64508927D01*
G37*
G36*
X101713512Y-64508927D02*
G01*
X101862812Y-64538624D01*
X102026784Y-64606544D01*
X102174354Y-64705147D01*
X102299853Y-64830646D01*
X102398456Y-64978216D01*
X102466376Y-65142188D01*
X102501000Y-65316259D01*
X102501000Y-65493741D01*
X102466376Y-65667812D01*
X102398456Y-65831784D01*
X102299853Y-65979354D01*
X102174354Y-66104853D01*
X102026784Y-66203456D01*
X101862812Y-66271376D01*
X101713512Y-66301073D01*
X101688742Y-66306000D01*
X101511258Y-66306000D01*
X101486488Y-66301073D01*
X101337188Y-66271376D01*
X101173216Y-66203456D01*
X101025646Y-66104853D01*
X100900147Y-65979354D01*
X100801544Y-65831784D01*
X100733624Y-65667812D01*
X100699000Y-65493741D01*
X100699000Y-65316259D01*
X100733624Y-65142188D01*
X100801544Y-64978216D01*
X100900147Y-64830646D01*
X101025646Y-64705147D01*
X101173216Y-64606544D01*
X101337188Y-64538624D01*
X101486488Y-64508927D01*
X101511258Y-64504000D01*
X101688742Y-64504000D01*
X101713512Y-64508927D01*
G37*
G36*
X99961000Y-66306000D02*
G01*
X98159000Y-66306000D01*
X98159000Y-64504000D01*
X99961000Y-64504000D01*
X99961000Y-66306000D01*
G37*
G36*
X113931000Y-66306000D02*
G01*
X112129000Y-66306000D01*
X112129000Y-64504000D01*
X113931000Y-64504000D01*
X113931000Y-66306000D01*
G37*
G36*
X115683512Y-64508927D02*
G01*
X115832812Y-64538624D01*
X115996784Y-64606544D01*
X116144354Y-64705147D01*
X116269853Y-64830646D01*
X116368456Y-64978216D01*
X116436376Y-65142188D01*
X116471000Y-65316259D01*
X116471000Y-65493741D01*
X116436376Y-65667812D01*
X116368456Y-65831784D01*
X116269853Y-65979354D01*
X116144354Y-66104853D01*
X115996784Y-66203456D01*
X115832812Y-66271376D01*
X115683512Y-66301073D01*
X115658742Y-66306000D01*
X115481258Y-66306000D01*
X115456488Y-66301073D01*
X115307188Y-66271376D01*
X115143216Y-66203456D01*
X114995646Y-66104853D01*
X114870147Y-65979354D01*
X114771544Y-65831784D01*
X114703624Y-65667812D01*
X114669000Y-65493741D01*
X114669000Y-65316259D01*
X114703624Y-65142188D01*
X114771544Y-64978216D01*
X114870147Y-64830646D01*
X114995646Y-64705147D01*
X115143216Y-64606544D01*
X115307188Y-64538624D01*
X115456488Y-64508927D01*
X115481258Y-64504000D01*
X115658742Y-64504000D01*
X115683512Y-64508927D01*
G37*
G36*
X118223512Y-64508927D02*
G01*
X118372812Y-64538624D01*
X118536784Y-64606544D01*
X118684354Y-64705147D01*
X118809853Y-64830646D01*
X118908456Y-64978216D01*
X118976376Y-65142188D01*
X119011000Y-65316259D01*
X119011000Y-65493741D01*
X118976376Y-65667812D01*
X118908456Y-65831784D01*
X118809853Y-65979354D01*
X118684354Y-66104853D01*
X118536784Y-66203456D01*
X118372812Y-66271376D01*
X118223512Y-66301073D01*
X118198742Y-66306000D01*
X118021258Y-66306000D01*
X117996488Y-66301073D01*
X117847188Y-66271376D01*
X117683216Y-66203456D01*
X117535646Y-66104853D01*
X117410147Y-65979354D01*
X117311544Y-65831784D01*
X117243624Y-65667812D01*
X117209000Y-65493741D01*
X117209000Y-65316259D01*
X117243624Y-65142188D01*
X117311544Y-64978216D01*
X117410147Y-64830646D01*
X117535646Y-64705147D01*
X117683216Y-64606544D01*
X117847188Y-64538624D01*
X117996488Y-64508927D01*
X118021258Y-64504000D01*
X118198742Y-64504000D01*
X118223512Y-64508927D01*
G37*
G36*
X120763512Y-64508927D02*
G01*
X120912812Y-64538624D01*
X121076784Y-64606544D01*
X121224354Y-64705147D01*
X121349853Y-64830646D01*
X121448456Y-64978216D01*
X121516376Y-65142188D01*
X121551000Y-65316259D01*
X121551000Y-65493741D01*
X121516376Y-65667812D01*
X121448456Y-65831784D01*
X121349853Y-65979354D01*
X121224354Y-66104853D01*
X121076784Y-66203456D01*
X120912812Y-66271376D01*
X120763512Y-66301073D01*
X120738742Y-66306000D01*
X120561258Y-66306000D01*
X120536488Y-66301073D01*
X120387188Y-66271376D01*
X120223216Y-66203456D01*
X120075646Y-66104853D01*
X119950147Y-65979354D01*
X119851544Y-65831784D01*
X119783624Y-65667812D01*
X119749000Y-65493741D01*
X119749000Y-65316259D01*
X119783624Y-65142188D01*
X119851544Y-64978216D01*
X119950147Y-64830646D01*
X120075646Y-64705147D01*
X120223216Y-64606544D01*
X120387188Y-64538624D01*
X120536488Y-64508927D01*
X120561258Y-64504000D01*
X120738742Y-64504000D01*
X120763512Y-64508927D01*
G37*
G36*
X129171000Y-66306000D02*
G01*
X127369000Y-66306000D01*
X127369000Y-64504000D01*
X129171000Y-64504000D01*
X129171000Y-66306000D01*
G37*
G36*
X130923512Y-64508927D02*
G01*
X131072812Y-64538624D01*
X131236784Y-64606544D01*
X131384354Y-64705147D01*
X131509853Y-64830646D01*
X131608456Y-64978216D01*
X131676376Y-65142188D01*
X131711000Y-65316259D01*
X131711000Y-65493741D01*
X131676376Y-65667812D01*
X131608456Y-65831784D01*
X131509853Y-65979354D01*
X131384354Y-66104853D01*
X131236784Y-66203456D01*
X131072812Y-66271376D01*
X130923512Y-66301073D01*
X130898742Y-66306000D01*
X130721258Y-66306000D01*
X130696488Y-66301073D01*
X130547188Y-66271376D01*
X130383216Y-66203456D01*
X130235646Y-66104853D01*
X130110147Y-65979354D01*
X130011544Y-65831784D01*
X129943624Y-65667812D01*
X129909000Y-65493741D01*
X129909000Y-65316259D01*
X129943624Y-65142188D01*
X130011544Y-64978216D01*
X130110147Y-64830646D01*
X130235646Y-64705147D01*
X130383216Y-64606544D01*
X130547188Y-64538624D01*
X130696488Y-64508927D01*
X130721258Y-64504000D01*
X130898742Y-64504000D01*
X130923512Y-64508927D01*
G37*
G36*
X136003512Y-64508927D02*
G01*
X136152812Y-64538624D01*
X136316784Y-64606544D01*
X136464354Y-64705147D01*
X136589853Y-64830646D01*
X136688456Y-64978216D01*
X136756376Y-65142188D01*
X136791000Y-65316259D01*
X136791000Y-65493741D01*
X136756376Y-65667812D01*
X136688456Y-65831784D01*
X136589853Y-65979354D01*
X136464354Y-66104853D01*
X136316784Y-66203456D01*
X136152812Y-66271376D01*
X136003512Y-66301073D01*
X135978742Y-66306000D01*
X135801258Y-66306000D01*
X135776488Y-66301073D01*
X135627188Y-66271376D01*
X135463216Y-66203456D01*
X135315646Y-66104853D01*
X135190147Y-65979354D01*
X135091544Y-65831784D01*
X135023624Y-65667812D01*
X134989000Y-65493741D01*
X134989000Y-65316259D01*
X135023624Y-65142188D01*
X135091544Y-64978216D01*
X135190147Y-64830646D01*
X135315646Y-64705147D01*
X135463216Y-64606544D01*
X135627188Y-64538624D01*
X135776488Y-64508927D01*
X135801258Y-64504000D01*
X135978742Y-64504000D01*
X136003512Y-64508927D01*
G37*
G36*
X123303512Y-64508927D02*
G01*
X123452812Y-64538624D01*
X123616784Y-64606544D01*
X123764354Y-64705147D01*
X123889853Y-64830646D01*
X123988456Y-64978216D01*
X124056376Y-65142188D01*
X124091000Y-65316259D01*
X124091000Y-65493741D01*
X124056376Y-65667812D01*
X123988456Y-65831784D01*
X123889853Y-65979354D01*
X123764354Y-66104853D01*
X123616784Y-66203456D01*
X123452812Y-66271376D01*
X123303512Y-66301073D01*
X123278742Y-66306000D01*
X123101258Y-66306000D01*
X123076488Y-66301073D01*
X122927188Y-66271376D01*
X122763216Y-66203456D01*
X122615646Y-66104853D01*
X122490147Y-65979354D01*
X122391544Y-65831784D01*
X122323624Y-65667812D01*
X122289000Y-65493741D01*
X122289000Y-65316259D01*
X122323624Y-65142188D01*
X122391544Y-64978216D01*
X122490147Y-64830646D01*
X122615646Y-64705147D01*
X122763216Y-64606544D01*
X122927188Y-64538624D01*
X123076488Y-64508927D01*
X123101258Y-64504000D01*
X123278742Y-64504000D01*
X123303512Y-64508927D01*
G37*
G36*
X220085256Y-62272298D02*
G01*
X220191579Y-62293447D01*
X220492042Y-62417903D01*
X220762451Y-62598585D01*
X220992415Y-62828549D01*
X221173097Y-63098958D01*
X221297553Y-63399421D01*
X221361000Y-63718391D01*
X221361000Y-64043609D01*
X221297553Y-64362579D01*
X221173097Y-64663042D01*
X220992415Y-64933451D01*
X220762451Y-65163415D01*
X220492042Y-65344097D01*
X220191579Y-65468553D01*
X220085256Y-65489702D01*
X219872611Y-65532000D01*
X219547389Y-65532000D01*
X219334744Y-65489702D01*
X219228421Y-65468553D01*
X218927958Y-65344097D01*
X218657549Y-65163415D01*
X218427585Y-64933451D01*
X218246903Y-64663042D01*
X218122447Y-64362579D01*
X218059000Y-64043609D01*
X218059000Y-63718391D01*
X218122447Y-63399421D01*
X218246903Y-63098958D01*
X218427585Y-62828549D01*
X218657549Y-62598585D01*
X218927958Y-62417903D01*
X219228421Y-62293447D01*
X219334744Y-62272298D01*
X219547389Y-62230000D01*
X219872611Y-62230000D01*
X220085256Y-62272298D01*
G37*
G36*
X78480256Y-62272298D02*
G01*
X78586579Y-62293447D01*
X78887042Y-62417903D01*
X79157451Y-62598585D01*
X79387415Y-62828549D01*
X79568097Y-63098958D01*
X79692553Y-63399421D01*
X79756000Y-63718391D01*
X79756000Y-64043609D01*
X79692553Y-64362579D01*
X79568097Y-64663042D01*
X79387415Y-64933451D01*
X79157451Y-65163415D01*
X78887042Y-65344097D01*
X78586579Y-65468553D01*
X78480256Y-65489702D01*
X78267611Y-65532000D01*
X77942389Y-65532000D01*
X77729744Y-65489702D01*
X77623421Y-65468553D01*
X77322958Y-65344097D01*
X77052549Y-65163415D01*
X76822585Y-64933451D01*
X76641903Y-64663042D01*
X76517447Y-64362579D01*
X76454000Y-64043609D01*
X76454000Y-63718391D01*
X76517447Y-63399421D01*
X76641903Y-63098958D01*
X76822585Y-62828549D01*
X77052549Y-62598585D01*
X77322958Y-62417903D01*
X77623421Y-62293447D01*
X77729744Y-62272298D01*
X77942389Y-62230000D01*
X78267611Y-62230000D01*
X78480256Y-62272298D01*
G37*
M02*
