M48
; DRILL file {KiCad (5.1.9)-1} date 08/06/21 00:56:14
; FORMAT={-:-/ absolute / metric / decimal}
; #@! TF.CreationDate,2021-08-06T00:56:14+01:00
; #@! TF.GenerationSoftware,Kicad,Pcbnew,(5.1.9)-1
FMAT,2
METRIC
T1C0.760
T2C0.800
T3C1.000
T4C1.520
T5C3.200
T6C3.200
%
G90
G05
T1
X12.319Y13.716
X13.589Y16.256
X14.859Y13.716
X16.129Y16.256
X17.399Y13.716
X18.669Y16.256
X19.939Y13.716
X21.209Y16.256
T2
X11.938Y35.052
X11.938Y32.512
X11.938Y29.972
X11.938Y27.432
X15.494Y34.925
X17.145Y19.939
X19.558Y35.052
X19.558Y32.512
X19.558Y29.972
X19.558Y27.432
X22.606Y26.543
X27.275Y38.862
X28.194Y31.115
X31.369Y37.211
X31.496Y44.069
X32.893Y19.304
X34.29Y42.799
X38.1Y48.006
X38.1Y9.906
X40.64Y3.175
X42.483Y36.755
X42.98Y48.006
X42.98Y9.906
X44.45Y21.082
X45.577Y36.246
X47.625Y6.731
X48.54Y37.95
X48.65Y32.048
X48.861Y14.568
X49.364Y34.649
X49.842Y40.764
X50.23Y17.225
X51.961Y23.7
X52.149Y25.619
X52.705Y20.066
X52.705Y11.316
X53.862Y23.387
X54.194Y37.429
X56.148Y39.316
X56.546Y36.553
X56.794Y20.226
X57.157Y23.166
X58.761Y19.317
X59.69Y39.665
X61.976Y14.578
X67.605Y20.066
X67.605Y11.316
X68.315Y46.145
X74.803Y36.322
T3
X27.432Y48.768
X29.845Y15.875
X29.845Y13.335
X29.972Y48.768
X71.628Y47.625
X71.628Y45.085
X73.406Y19.558
X73.406Y17.018
X73.406Y14.478
X74.549Y32.512
X74.549Y29.972
X74.549Y27.432
X77.089Y32.512
X77.089Y29.972
X77.089Y27.432
T4
X52.451Y3.81
X57.531Y3.81
X64.135Y3.81
X69.215Y3.81
T5
X3.81Y51.816
X3.81Y4.826
X76.2Y51.816
X76.2Y4.826
T6
X11.049Y7.366
X22.479Y7.366
T0
M30
