M48
; DRILL file {KiCad 5.1.5+dfsg1-2build2} date mar 27 jul 2021 09:38:36
; FORMAT={-:-/ absolute / metric / decimal}
; #@! TF.CreationDate,2021-07-27T09:38:36+01:00
; #@! TF.GenerationSoftware,Kicad,Pcbnew,5.1.5+dfsg1-2build2
FMAT,2
METRIC
T1C0.600
T2C0.800
T3C1.000
T4C1.520
T5C3.200
%
G90
G05
T1
X11.43Y40.64
X12.93Y40.64
X3.81Y11.43
X5.31Y11.43
X5.08Y40.64
X6.58Y40.64
X8.914Y11.43
X10.414Y11.43
X13.97Y11.43
X15.47Y11.43
X54.61Y15.24
X56.11Y15.24
T2
X15.982Y15.083
X31.723Y33.302
X32.191Y17.93
X35.306Y2.286
X36.83Y33.02
X36.83Y30.48
X36.83Y13.97
X40.64Y12.7
X41.127Y30.714
X44.678Y27.712
X47.586Y12.7
X49.022Y27.94
X52.07Y9.14
X53.816Y27.94
X58.674Y20.574
X59.69Y12.7
X25.4Y44.45
X30.28Y44.45
X5.08Y35.56
X5.08Y33.02
X5.08Y30.48
X5.08Y27.94
X5.08Y25.4
X5.08Y22.86
X5.08Y20.32
X5.08Y17.78
X12.7Y35.56
X12.7Y33.02
X12.7Y30.48
X12.7Y27.94
X12.7Y25.4
X12.7Y22.86
X12.7Y20.32
X12.7Y17.78
X25.4Y6.35
X30.28Y6.35
T3
X17.78Y37.973
X17.78Y35.433
X62.23Y22.86
X62.23Y20.32
X62.23Y17.78
X64.77Y22.86
X64.77Y20.32
X64.77Y17.78
X64.77Y33.02
X64.77Y30.48
X59.309Y37.973
X59.309Y35.433
T4
X50.8Y3.81
X55.88Y3.81
X39.37Y3.81
X44.45Y3.81
X50.8Y48.26
X55.88Y48.26
X39.37Y48.26
X44.45Y48.26
T5
X63.5Y48.26
X3.81Y48.26
X63.5Y3.81
X3.81Y3.81
T0
M30
